<?xml version="1.0" encoding="UTF-8"?>
<svg id="Capa_1" data-name="Capa 1" xmlns="http://www.w3.org/2000/svg" viewBox="0 0 604.23 147.38" fill="#fff">
  <defs>
    <style>
      .cls-1 {
        fill: #ffffff;
      }
    </style>
  </defs>
  <g>
    <path class="cls-1" d="M556.49,147.21c-12.32,0-23.24-3.84-31.58-11.12-4.87-4.25-9.1-9.59-11.9-15.03l-.22-.44,.34-.86c.04-.07,.07-.14,.11-.21,.68-1.43,1.68-3.63,2.66-5.77,.79-1.72,1.56-3.41,2.13-4.63,5.27-12.78,9.03-18.86,14.88-24.05,.4-.35,.75-.65,1.09-.94h0c.96-.8,1.94-1.57,3.01-2.36,.14-.14,.28-.27,.42-.4l.26-.24,1.58,1.71-.26,.24c-4.44,4.21-6.99,10.23-6.99,16.54,0,12.5,10.17,22.67,22.67,22.67,4.29,0,8.47-1.21,12.09-3.5h0c.41-.22,.81-.47,1.21-.71,18.98-10.37,29.82-38.29,29.92-38.57l.97-2.54,1.17,2.45c2.79,5.85,4.15,12.58,4.15,20.57,0,17.65-10.94,31.64-20.3,38.27-8.49,6-17.47,8.92-27.44,8.92Zm-41.13-26.68c2.67,5,6.58,9.88,11.08,13.81,7.9,6.9,18.29,10.54,30.04,10.54,9.47,0,18.01-2.78,26.09-8.49,9.62-6.8,19.32-20.68,19.32-36.36,0-6.52-.93-12.14-2.84-17.08-3.2,7.35-13.44,28.21-29.87,37.18-.41,.25-.87,.54-1.34,.8h0c-3.95,2.44-8.49,3.73-13.13,3.73-13.79,0-25-11.21-25-25,0-3.57,.75-7.07,2.14-10.26-4.19,4.52-7.41,10.32-11.68,20.7-.59,1.26-1.36,2.94-2.14,4.66-.97,2.14-1.98,4.33-2.66,5.77Z"/>
    <g>
      <path class="cls-1" d="M473.81,147.23h0c-.39,0-.79,0-1.19-.01h-.11s-.25,0-.25,0c-.8,0-1.6-.02-2.39-.05-25.21-.96-34.24-15.3-38.09-21.42-.22-.35-.45-.7-.67-1.06-.53-.85-1.04-1.68-1.49-2.34l-.45-.66,.46-.66c3.45-5.01,6.36-9.69,10.99-18.84,.04-.09,.08-.17,.11-.26,.06-.16,.13-.31,.21-.47,.41-.79,.83-1.65,1.28-2.54,1.7-3.44,3.64-7.33,6.2-11.06l1.99,1.2c-1.72,3.28-2.6,6.83-2.6,10.55v.1c0,6.14,2.44,11.91,6.88,16.22l.27,.25c.15,.14,.25,.24,.36,.33,3.97,3.64,9.51,5.56,16.01,5.56h.29c13.19-.12,21.07-8.8,23.15-14.61,1.1-3.08,2.71-6.59,4.66-10.14l.55-1,1.01,.53c2.01,1.05,4.59,1.12,7.5,.21,1.45-.46,2.99-1.15,4.55-2.07,6.03-3.51,4.29-9.84,2.46-14.29l-.3-.75c-.33-.82-.83-2.07-1.48-3.47l-.25-.54,.29-.52c8.42-15.08,24.37-24.57,41.62-24.76,7.59,.07,14.61,1.58,20.89,4.47,.69,.32,1.31,.63,1.92,.95l.36,.19c.55,.29,1.08,.59,1.61,.9l.39,.23c.42,.25,.83,.51,1.24,.77l.14,.09c13.12,8.45,17.99,20.77,18.19,21.29l.16,.42-.16,.42c-.45,1.18-11.24,29.01-30.93,39.76-.53,.29-1.05,.57-1.59,.83l-1.13-2.04,.13-.09c6.63-4.2,10.58-11.36,10.58-19.17,0-12.5-10.17-22.67-22.67-22.67-2.81,0-5.56,.51-8.18,1.53l-.1,.04c-.24,.09-.41,.16-.58,.23-.76,.32-1.52,.7-2.27,1.12l-.13,.07c-.92,.53-1.81,1.13-2.64,1.77l-.16,.13c-.41,.32-.8,.66-1.19,1.01l-.16,.15c-.17,.16-.35,.32-.52,.49l-.13,.11c-1.04,.77-1.96,1.48-2.82,2.19h0s-.13,.11-.13,.11c-.36,.3-.72,.61-1.06,.91-5.55,4.92-9.16,10.79-14.29,23.25-.59,1.26-1.36,2.94-2.14,4.66-.98,2.15-1.99,4.37-2.68,5.81-.05,.1-.1,.2-.15,.29l-.13,.25c-3.45,7.02-8.59,13.13-14.88,17.69-1.05,.76-2.19,1.5-3.38,2.2-6.78,4.12-14.52,6.22-22.99,6.22Zm-1.36-2.35h.22c.38,.01,.76,.02,1.13,.02,8.04,0,15.38-1.98,21.8-5.89,1.15-.67,2.22-1.37,3.21-2.09,5.98-4.33,10.87-10.15,14.16-16.82l.17-.32c.04-.07,.07-.14,.11-.21,.68-1.43,1.68-3.63,2.66-5.77,.79-1.72,1.56-3.41,2.13-4.63,5.27-12.78,9.03-18.86,14.88-24.05,.36-.32,.72-.63,1.09-.94h0c.93-.78,1.91-1.54,3.01-2.36,.17-.17,.34-.33,.52-.49l.17-.16c.43-.38,.86-.75,1.31-1.11l.17-.13c.92-.72,1.9-1.37,2.91-1.95l.13-.08c.83-.47,1.67-.89,2.51-1.24,.19-.08,.38-.16,.57-.23l.18-.07c2.89-1.12,5.92-1.69,9.02-1.69,13.78,0,25,11.21,25,25,0,4.57-1.23,8.94-3.46,12.72,12.85-11.42,20.51-29.42,21.72-32.42-.95-2.18-5.94-12.58-17.1-19.76l-.13-.09c-.39-.25-.78-.49-1.18-.73l-.37-.21c-.5-.29-1.01-.58-1.53-.86l-.27-.14c-.65-.33-1.23-.63-1.84-.91-6.03-2.78-12.73-4.22-19.96-4.28-16.2,.18-31.21,9-39.3,23.06,.55,1.23,.98,2.3,1.27,3.03l.29,.73c1.25,3.04,5.04,12.26-3.44,17.2-1.71,1-3.41,1.76-5.03,2.28-3.05,.96-5.86,.99-8.22,.1-1.66,3.12-3.04,6.17-4,8.86-2.3,6.42-10.94,16.03-25.33,16.15h-.31c-7.1,0-13.18-2.13-17.58-6.17-.11-.1-.23-.21-.34-.32l-.34-.33c-4.89-4.74-7.58-11.11-7.58-17.92,0-.76,.03-1.52,.1-2.27-.44,.87-.87,1.73-1.28,2.55-.45,.91-.88,1.77-1.29,2.58-.05,.09-.08,.18-.12,.27-.06,.15-.12,.3-.2,.45-4.49,8.86-7.38,13.6-10.71,18.45,.35,.54,.73,1.14,1.12,1.77,.22,.36,.43,.69,.65,1.03,3.97,6.31,12.23,19.43,36.22,20.34,.76,.03,1.53,.05,2.29,.05h.2Z"/>
      <path class="cls-1" d="M249.93,147.21h-26.3v-5.21l.75-.29c8.42-3.24,16.16-8.74,23-16.33l2.53-2.88,.02,3.07v21.64Zm-23.97-2.33h21.64v-16.31c-6.51,6.82-13.78,11.86-21.64,15.03v1.29Z"/>
      <path class="cls-1" d="M429.55,147.2h-25.79v-5.29l.67-.31c13.76-6.47,19.48-12.68,22.92-17.36l2.1-2.85,.08,3.44,.02,22.38Zm-23.46-2.33h21.13v-16.68c-3.74,4.41-9.71,9.73-21.13,15.2v1.48Z"/>
      <path class="cls-1" d="M384.34,147.29c-32.82,0-41.11-22.64-41.84-24.82l-.1-.16v-.15l-.1-.36,.16-.33c.02-.09,.13-.49,.3-1.07v-.02l.46-1.5c.62-1.99,1.35-4.07,2.14-6.17l.43-1.11,1.13,.31-1.08-.42c.16-.42,.33-.85,.51-1.29,.46-1.18,1-2.45,1.64-3.87,.28-.62,.53-1.16,.73-1.59,.49-1.04,.75-1.53,.75-1.53,1.42-2.9,2.94-5.67,4.5-8.21l.05-.09,1.02,.57-.96-.67c2.83-4.58,5.85-8.47,8.98-11.56,.08-.08,.17-.16,.26-.24l.14-.12c5.21-4.9,13.73-8.07,21.69-8.07h.26s.02,0,.03,0v2.33c-5.2,.02-10.09,1.73-14.16,4.97-5.5,4.38-8.66,10.91-8.66,17.92,0,12.62,10.27,22.9,22.9,22.9,5.68,0,11.13-2.1,15.34-5.9l.24-.17c.13-.09,.26-.18,.38-.27l.26-.2c.32-.24,.65-.5,.97-.78l.2-.17c.39-.33,.78-.68,1.16-1.05,.22-.21,.39-.38,.57-.54,.54-.5,1.1-1.01,1.68-1.54,.64-.58,1.3-1.18,1.99-1.82,4.83-4.52,10.07-10.54,15.72-23.89,1.15-2.72,2.23-5.15,3.19-7.22l4.07-7.68c3.38-5.45,16.66-19.55,37.68-20.18,.85-.03,1.69-.04,2.51-.04,17.31,0,30.37,5.47,39.95,16.73,1.5,1.77,2.98,4.21,4.38,7.25,.7,1.51,1.21,2.79,1.55,3.63l.29,.73c1.25,3.04,5.04,12.26-3.44,17.2-1.71,1-3.41,1.76-5.03,2.28-3.51,1.11-6.71,.97-9.28-.36-.79-.41-1.52-.93-2.15-1.54-1.77-1.7-2.26-2.89-2.66-3.85-.1-.24-.2-.48-.32-.71-.24-.46-.47-.92-.71-1.4-3.36-6.67-7.16-14.23-23.46-14.23h-.34c-10.2,.07-16.87,7.54-19.94,11.99-2.47,3.59-4.36,7.4-6.03,10.77-.45,.91-.88,1.77-1.29,2.57-.05,.09-.08,.18-.12,.27-.06,.15-.12,.3-.2,.45-4.69,9.26-7.64,14.02-11.15,19.1-.36,.53-.73,1.06-1.11,1.6-.34,.49-.72,1.02-1.12,1.57l-1.01-.58,.94,.69c-3.61,4.91-9.58,11.4-23.81,18.09l-.48,.23c-4.79,2.22-10.91,3.26-19.84,3.35h-.76Zm-39.58-25.41c.89,2.59,8.9,23.08,39.58,23.08h.74c5.33-.06,13.08-.44,18.88-3.13l.47-.23c13.76-6.47,19.48-12.68,22.92-17.36l.08-.11c.39-.54,.76-1.05,1.09-1.52,.38-.54,.74-1.06,1.1-1.58,3.46-5.01,6.36-9.69,10.99-18.84,.04-.09,.08-.17,.11-.26,.06-.16,.13-.31,.21-.47,.41-.79,.83-1.65,1.28-2.54,1.7-3.44,3.64-7.33,6.2-11.06,3.33-4.82,10.58-12.93,21.85-13h.36c17.73,0,22.06,8.6,25.54,15.51,.23,.47,.47,.93,.7,1.38,.15,.29,.27,.58,.4,.88,.35,.84,.71,1.7,2.13,3.07,.47,.46,1.02,.84,1.61,1.16,2.01,1.05,4.59,1.12,7.5,.21,1.45-.46,2.99-1.15,4.55-2.07,6.03-3.51,4.29-9.84,2.46-14.29l-.3-.75c-.33-.82-.83-2.07-1.48-3.47-1.34-2.9-2.7-5.16-4.06-6.76-9.1-10.7-21.59-15.91-38.17-15.91-.8,0-1.61,.01-2.44,.04-19.99,.6-32.57,13.93-35.73,19.01l-4,7.56c-.93,1.99-1.99,4.39-3.13,7.09-5.83,13.79-11.5,20.21-16.27,24.68-.7,.65-1.37,1.26-2.02,1.85-.57,.52-1.12,1.02-1.65,1.51-.17,.16-.34,.32-.5,.48-.46,.44-.88,.82-1.3,1.18l-.15,.12c-.42,.35-.77,.63-1.13,.91l-.28,.21c-.15,.11-.3,.21-.45,.32l-.06,.04c-4.63,4.16-10.62,6.45-16.85,6.45-13.91,0-25.23-11.32-25.23-25.23,0-6.35,2.35-12.34,6.55-16.95-.63,.48-1.23,.98-1.78,1.5l-.18,.16c-.06,.05-.12,.11-.18,.16-2.99,2.96-5.9,6.71-8.63,11.13l-.07,.11c-1.56,2.54-3.04,5.25-4.45,8.12-.03,.06-.27,.51-.72,1.46-.2,.42-.44,.94-.71,1.55-.63,1.39-1.15,2.63-1.61,3.78-.18,.44-.35,.86-.51,1.27l-.35,.91-1.13-.31,1.09,.41-.08,.2c-.77,2.02-1.5,4.12-2.1,6.04l-.4,1.32c-.13,.43-.23,.77-.29,.99Z"/>
      <path class="cls-1" d="M157.54,147.21h-13.86c-4.35,0-7.6-.48-10.33-2.87-2.76-2.41-4.16-5.55-4.16-9.35v-47.05c0-5.17-1.71-8.81-5.22-11.14-3.62-2.4-7.73-3.61-12.22-3.61s-8.61,1.21-12.22,3.61c-3.51,2.33-5.22,5.97-5.22,11.14v4.84l-.12,54.43h-29.65l.12-59.27c0-5.16-1.71-8.8-5.22-11.14-3.62-2.4-7.73-3.61-12.22-3.61s-8.53,1.21-12.01,3.6c-3.39,2.33-5.04,5.97-5.04,11.15l-.12,59.27H0l.12-54.43c0-16.05,4.93-26.99,14.65-32.49,9.49-5.37,20.13-8.33,31.61-8.8h.02c6.14,0,12.21,.59,18.07,1.75,5.67,1.13,10.91,3.35,15.6,6.62,3.93-2.82,8.57-4.87,13.8-6.1,5.47-1.28,11.21-2.04,17.05-2.28h0c11.8,0,22.77,2.72,32.67,8.1,7.59,4.12,12.39,11.45,14.3,21.81,8.38-11.92,24.43-29.2,46.94-29.2,.22,0,.44,0,.66,0,11.48,.09,22.16,4.51,31.03,12.84v-5.56h13.41v20.64l-.08,.21c-7.9,20.23-17.43,33.2-29.12,39.63l-.46-.83-.85-1.09c.43-.34,.85-.68,1.25-1.05,4.77-4.33,7.51-10.51,7.51-16.96,0-11.35-8.47-21.1-19.69-22.67l.06-1.17-.16,1.15c-3.38-.46-6.59-.18-9.79,.8-.63,.16-1.19,.3-1.73,.48-.08,.03-.17,.06-.25,.09l-.26,.1c-.43,.14-.84,.29-1.24,.45l-.18,.07c-18.5,7.27-27.76,35.71-29.73,42.49l.06,.12-.22,.43-.12,.43c-4.27,13.11-6.23,23.36-6.25,23.46l-.18,.95h-.97Zm-45.79-76.35c4.96,0,9.5,1.35,13.51,4,4.15,2.75,6.26,7.16,6.26,13.08v47.05c0,3.14,1.1,5.62,3.36,7.6,2.19,1.92,4.88,2.29,8.79,2.29h12.9c.59-2.84,2.54-11.75,6.06-22.57l.22-.77c2.45-8.6,11.83-36.76,31.22-44.38l.12-.05c.52-.2,.96-.36,1.41-.51l.18-.07c.12-.05,.25-.09,.37-.13,.54-.17,1.12-.33,1.82-.5,3.42-1.05,7-1.37,10.72-.86l.13,.02c12.35,1.73,21.68,12.46,21.68,24.97,0,4.34-1.13,8.57-3.2,12.29,7.74-7.07,14.54-18,20.28-32.64v-17.87h-8.75v8.91l-2-2.08c-8.93-9.27-19.49-14.01-31.39-14.1-.22,0-.43,0-.63,0-23.02,0-39.12,19.18-46.66,30.61l-1.73,2.63-.39-3.12c-1.4-11.14-5.96-18.88-13.56-23-9.55-5.19-20.15-7.82-31.51-7.82-5.64,.23-11.23,.97-16.56,2.22-5.22,1.23-9.81,3.31-13.62,6.2l-.69,.52-.7-.51c-4.59-3.34-9.76-5.6-15.38-6.72-5.72-1.13-11.64-1.71-17.59-1.71-11.06,.45-21.34,3.31-30.51,8.5-8.93,5.06-13.46,15.31-13.46,30.47l-.12,52.1H27.72l.12-56.94c0-5.92,2.04-10.31,6.05-13.06,3.87-2.66,8.36-4.01,13.33-4.01s9.5,1.35,13.51,4c4.16,2.76,6.26,7.16,6.26,13.08v4.84l-.12,52.1h24.99l.12-56.94c0-5.93,2.11-10.33,6.26-13.08,4-2.65,8.55-4,13.51-4Z"/>
      <path class="cls-1" d="M206.36,147.38c-.27,0-.54,0-.81,0-24.19-.16-39.32-20.12-42.21-24.27h-.93l.42-1.48c2.41-8.5,11.79-36.82,31.25-44.47l.21-.08c.43-.16,.87-.33,1.32-.48,.57-.19,1.14-.37,1.73-.52l9.04-1.12-8.44,3.39c-2.52,.86-4.84,2.12-6.9,3.75-5.5,4.38-8.66,10.91-8.66,17.92,0,12.62,10.27,22.9,22.89,22.9,1.96,0,3.91-.25,5.8-.74l.19-.06c.47-.13,.95-.28,1.42-.44,.14-.05,.29-.1,.43-.16l.14-.05c.37-.14,.73-.28,1.09-.44l.15-.06c.11-.05,.21-.09,.32-.14,.57-.26,1.07-.51,1.51-.76,.5-.28,.98-.57,1.49-.9l.22-.15c.52-.35,.97-.67,1.38-1l.18-.12c11-6.05,20.42-18.92,27.99-38.23v-20.2h1.17s24.24,0,24.24,0v30.02l25.95-30.72h33.46l-33.4,40.31,22.52,25.7c1.68-19.04,18.16-73.3,60.58-73.3h.43c10.34,.09,19.47,2.42,25.72,6.56,3.81,2.53,5.77,3.83,8.05,6.06l-.09-5.34h13.31v21.19l-.19,.41c-.94,2.01-2,4.42-3.15,7.13-5.84,13.79-11.5,20.21-16.27,24.68-.67,.63-1.32,1.21-1.95,1.78-.6,.54-1.17,1.06-1.73,1.58l-.51,.48c-.4,.38-.81,.75-1.22,1.1l-.22,.18c-.35,.3-.71,.58-1.06,.85l-.27,.21c-.18,.14-.36,.26-.54,.39l-.08,.05-1.45-1.82c4.77-4.33,7.51-10.51,7.51-16.96,0-11.35-8.47-21.1-19.69-22.67h-.08c-1.06-.16-2.1-.23-3.12-.23h-.35c-7.4,0-15.29,2.93-20.09,7.45l-.16,.14c-.06,.05-.13,.11-.19,.17-3,2.92-5.9,6.66-8.63,11.13l-.12,.2c-1.51,2.46-3,5.17-4.4,8.03-.03,.05-.27,.51-.72,1.45-.2,.42-.44,.94-.71,1.55-.64,1.42-1.15,2.61-1.61,3.78-.18,.44-.35,.86-.51,1.27l-1.13-.3,1.08,.43c-.09,.24-.2,.51-.3,.79l-.12,.3c-.78,2.05-1.48,4.08-2.1,6.04l-.4,1.32c-.13,.44-.23,.78-.29,1l.03,.1-.5,1.58c-4.14,12.8-5.6,22.51-5.62,22.61l-.15,.99-32.53,.05-33.12-37.03v37.04s-25.27,0-25.27,0v-18.66c-6.65,6.97-14.1,12.09-22.17,15.24l-.17,.17h-.27c-5.96,2.27-12.23,3.42-18.63,3.42Zm-41.13-25.64c2.66,3.85,17.18,23.15,40.35,23.3,.27,0,.52,0,.78,0,6.19,0,12.24-1.12,18-3.34l.17-.07c8.38-3.26,16.05-8.74,22.85-16.28l2.53-2.86,.02,3.05v19.32h20.62v-40.81s36.49,40.8,36.49,40.8l29.5-.05c.49-2.82,2.11-11.37,5.54-21.99l.28-.87-.05-.17,.15-.32c.04-.14,.14-.53,.31-1.1v-.02l.46-1.5c.63-2,1.35-4.07,2.14-6.17l.11-.29c.11-.29,.22-.57,.31-.82l1.13,.31-1.08-.42c.16-.42,.33-.85,.51-1.29,.46-1.19,.99-2.43,1.64-3.87,.28-.62,.53-1.16,.73-1.59,.49-1.04,.75-1.53,.75-1.53,1.42-2.89,2.94-5.67,4.5-8.21l.12-.19c2.82-4.62,5.84-8.52,8.98-11.56,.09-.09,.19-.18,.29-.27l.11-.1c5.19-4.89,13.71-8.06,21.67-8.06h.15c.08,0,.14,0,.21,0,1.12,0,2.27,.08,3.42,.24h.09c12.39,1.74,21.72,12.48,21.72,24.99,0,3.55-.76,7.03-2.17,10.22,4.76-4.49,9.92-10.53,15.47-23.66,1.15-2.7,2.21-5.11,3.16-7.15v-18.34h-8.61l.15,9.06-2.08-2.31c-3.2-3.56-4.84-4.64-9.69-7.86-5.88-3.89-14.56-6.08-24.45-6.17h-.41c-23.51,0-37.84,17.43-45.72,32.05-9.49,17.61-12.68,36.12-12.68,41.85v3.1l-27.76-31.69,31.5-38.03h-27.42l-29.36,34.76V61.8h-20.74s0,18.32,0,18.32l-.08,.21c-7.88,20.19-17.38,33.14-29.04,39.59-.44,.34-.92,.68-1.44,1.04l-.27,.18c-.56,.36-1.08,.68-1.6,.97-.54,.3-1.08,.57-1.7,.86-.12,.06-.25,.11-.38,.17l-.14,.06c-.4,.17-.8,.33-1.21,.48l-.13,.05c-.16,.06-.33,.12-.49,.18-.52,.18-1.04,.34-1.57,.48-.09,.03-.14,.04-.2,.06-2.08,.54-4.23,.82-6.39,.82-13.91,0-25.23-11.32-25.23-25.23,0-4.55,1.2-8.91,3.43-12.71-10.92,11.31-16.72,29.13-18.27,34.43Z"/>
    </g>
  </g>
  <path class="cls-1" d="M185.36,9.77c.94-.43,1.86-.89,2.78-1.38-.92,.49-1.84,.95-2.78,1.38Z"/>
  <path class="cls-1" d="M377.03,2.19c.33-.26,.65-.51,.96-.76-.31,.25-.63,.51-.96,.76Z"/>
  <path class="cls-1" d="M364.93,9.7c.78-.39,1.53-.79,2.26-1.18-.73,.39-1.48,.79-2.26,1.18Z"/>
  <path class="cls-1" d="M371.77,5.85c.45-.28,.89-.56,1.31-.85-.43,.28-.86,.56-1.31,.85Z"/>
  <path class="cls-1" d="M367.59,8.29c.57-.31,1.12-.62,1.65-.92-.53,.31-1.08,.61-1.65,.92Z"/>
  <path class="cls-1" d="M369.85,7.02c.46-.27,.91-.54,1.34-.8-.43,.27-.88,.54-1.34,.8Z"/>
  <path class="cls-1" d="M375.17,3.59c.5-.36,.98-.72,1.45-1.07-.46,.36-.94,.71-1.45,1.07Z"/>
  <path class="cls-1" d="M373.51,4.73c.56-.38,1.11-.75,1.63-1.12-.52,.37-1.06,.75-1.63,1.12Z"/>
  <path class="cls-1" d="M378.42,1.07c.29-.25,.58-.49,.85-.73-.28,.24-.56,.49-.85,.73Z"/>
  <path class="cls-1" d="M360.85,9.09l.47-.23-.59,.28s.08-.04,.12-.05Z"/>
  <path class="cls-1" d="M376.61,2.51c.14-.11,.28-.22,.42-.32-.14,.11-.27,.21-.42,.32Z"/>
  <path class="cls-1" d="M379.28,.34c.13-.11,.26-.22,.38-.34-.12,.11-.25,.22-.38,.34Z"/>
  <path class="cls-1" d="M375.14,3.6s.02-.01,.02-.02c0,0-.02,.01-.02,.02Z"/>
  <path class="cls-1" d="M373.09,5.01c.14-.09,.29-.19,.43-.28-.14,.09-.29,.19-.43,.28Z"/>
  <path class="cls-1" d="M364.65,9.84c.09-.05,.19-.09,.28-.14-.09,.04-.19,.09-.28,.14Z"/>
  <path class="cls-1" d="M371.19,6.21c.2-.12,.39-.24,.58-.36-.19,.12-.39,.24-.58,.36Z"/>
  <path class="cls-1" d="M377.98,1.43c.15-.12,.29-.24,.44-.36-.14,.12-.29,.24-.44,.36Z"/>
  <path class="cls-1" d="M367.18,8.52c.14-.07,.27-.15,.41-.22-.14,.08-.27,.15-.41,.22Z"/>
  <path class="cls-1" d="M369.24,7.37c.2-.12,.4-.24,.61-.35-.2,.12-.4,.24-.61,.35Z"/>
  <path class="cls-1" d="M185.1,9.88c.09-.04,.18-.08,.26-.12-.09,.04-.18,.08-.26,.12Z"/>
  <path class="cls-1" d="M188.14,8.39s.09-.04,.13-.07c-.04,.02-.09,.04-.13,.07Z"/>
  <g>
    <path d="M567.85,121.26c-3.95,2.45-8.49,3.74-13.13,3.74-13.79,0-25-11.21-25-25,0-3.57,.75-7.07,2.14-10.25-.02,.02-.04,.05-.07,.07-.2,.22-.4,.44-.6,.66-.07,.08-.15,.17-.22,.25-.2,.23-.4,.46-.59,.7-.06,.07-.12,.15-.18,.22-.66,.82-1.3,1.68-1.93,2.61-.05,.07-.09,.13-.14,.2-.16,.24-.32,.5-.49,.75-.1,.16-.2,.31-.3,.47-.15,.23-.29,.47-.44,.72-.12,.19-.23,.38-.35,.58-.14,.23-.27,.46-.41,.7-.13,.23-.26,.47-.4,.71-.12,.22-.24,.44-.36,.67-.19,.36-.39,.74-.58,1.12-.1,.2-.21,.4-.31,.61-.21,.42-.42,.85-.64,1.29-.1,.2-.2,.41-.3,.62-.17,.36-.34,.72-.51,1.09-.11,.23-.21,.46-.32,.7-.17,.38-.34,.76-.52,1.16-.1,.23-.21,.47-.31,.71-.19,.44-.38,.88-.58,1.34-.09,.21-.18,.42-.27,.64-.29,.68-.58,1.37-.87,2.09-.41,.89-.92,1.98-1.45,3.15-.23,.5-.46,1-.69,1.51-.46,1.01-.93,2.03-1.36,2.98-.03,.06-.05,.12-.08,.18-.03,.06-.05,.12-.08,.17-.2,.44-.4,.86-.58,1.26-.02,.04-.04,.08-.06,.12-.08,.18-.16,.35-.24,.52-.02,.05-.04,.09-.07,.14-.06,.14-.13,.27-.19,.4,2.67,5,6.58,9.88,11.08,13.81,7.9,6.9,18.29,10.54,30.04,10.54,9.47,0,18.01-2.78,26.09-8.49,9.62-6.8,19.32-20.68,19.32-36.36,0-6.52-.93-12.14-2.84-17.08-.32,.73-.71,1.59-1.16,2.56-.03,.07-.07,.14-.1,.22-.13,.28-.26,.56-.41,.85-.05,.1-.1,.21-.15,.31-.13,.28-.27,.56-.42,.85-.06,.12-.11,.23-.17,.35-.16,.31-.32,.63-.49,.96-.05,.09-.09,.18-.14,.28-.44,.84-.91,1.73-1.41,2.64-.07,.13-.15,.27-.22,.4-.18,.32-.36,.65-.55,.97-.09,.16-.19,.33-.28,.49-.18,.32-.37,.63-.56,.96-.1,.17-.19,.33-.29,.5-.21,.35-.42,.7-.64,1.05-.09,.14-.17,.28-.26,.42-.31,.49-.62,.99-.94,1.49-.02,.03-.04,.06-.06,.1-.3,.46-.61,.93-.92,1.4-.11,.16-.21,.31-.32,.47-.24,.35-.47,.69-.72,1.04-.13,.18-.26,.37-.39,.55-.23,.33-.47,.66-.71,.99-.13,.18-.27,.37-.41,.55-.26,.35-.53,.7-.79,1.05-.12,.16-.24,.31-.36,.47-.39,.5-.79,1-1.19,1.5-.03,.03-.06,.07-.08,.1-.38,.46-.76,.92-1.15,1.38-.14,.16-.28,.31-.41,.47-.29,.33-.58,.66-.88,.99-.16,.18-.33,.36-.49,.53-.29,.31-.58,.62-.87,.92-.17,.17-.33,.35-.5,.52-.31,.32-.63,.63-.96,.95-.15,.15-.3,.29-.45,.44-.47,.45-.95,.9-1.44,1.33-.02,.02-.04,.04-.06,.05-.47,.42-.94,.82-1.43,1.22-.16,.13-.33,.26-.49,.4-.35,.28-.7,.56-1.05,.83-.19,.15-.39,.29-.58,.44-.34,.25-.68,.5-1.03,.74-.2,.14-.4,.28-.6,.41-.37,.25-.74,.49-1.12,.73-.18,.11-.35,.23-.53,.34-.56,.34-1.12,.67-1.69,.98-.41,.25-.87,.54-1.34,.8h0Z"/>
    <path d="M539.02,80.39l.17-.13c.92-.72,1.9-1.37,2.91-1.95l.13-.08c.83-.47,1.67-.89,2.51-1.24,.19-.08,.38-.16,.57-.23l.18-.07c2.89-1.12,5.92-1.69,9.02-1.69,13.78,0,25,11.21,25,25,0,4.55-1.22,8.91-3.44,12.68,11.39-10.14,18.69-25.41,21.04-30.82t0,0c.1-.22,.18-.42,.26-.61,.02-.04,.03-.08,.05-.11,.06-.14,.11-.27,.17-.39,.07-.17,.13-.32,.18-.44-.95-2.18-5.94-12.58-17.1-19.76l-.13-.08c-.39-.25-.78-.49-1.18-.73l-.37-.21c-.5-.29-1.01-.58-1.53-.86l-.27-.14c-.65-.33-1.23-.63-1.84-.91-6.03-2.78-12.73-4.22-19.96-4.28-16.2,.18-31.21,9-39.3,23.06,.06,.13,.11,.25,.17,.38,.03,.07,.06,.14,.09,.21,.12,.28,.23,.54,.34,.79,.02,.05,.04,.09,.06,.14,.11,.26,.21,.5,.3,.73,.01,.03,.03,.07,.04,.1,.1,.25,.19,.48,.27,.68l.29,.73c1.25,3.04,5.04,12.26-3.44,17.2-1.71,1-3.41,1.76-5.03,2.28-.41,.13-.82,.24-1.22,.33-.13,.03-.26,.05-.39,.08-.27,.06-.54,.11-.81,.15-.15,.02-.29,.04-.43,.06-.25,.03-.5,.06-.74,.08-.14,0-.29,.02-.43,.02-.25,0-.49,.01-.73,0-.13,0-.26,0-.39-.01-.25-.01-.5-.04-.75-.07-.11-.01-.22-.02-.33-.04-.29-.04-.58-.1-.87-.17-.06-.01-.11-.02-.17-.04-.33-.08-.65-.18-.96-.3-1.66,3.12-3.04,6.17-4,8.86-2.3,6.42-10.94,16.03-25.33,16.15h-.31c-7.1,0-13.18-2.13-17.58-6.17-.11-.1-.23-.21-.34-.32l-.34-.33c-4.89-4.74-7.58-11.11-7.58-17.92,0-.76,.03-1.52,.1-2.27-.44,.87-.87,1.73-1.28,2.55-.45,.91-.88,1.77-1.29,2.57-.05,.09-.08,.18-.12,.27-.06,.15-.12,.3-.2,.45-.29,.57-.57,1.12-.85,1.66-.06,.12-.12,.22-.17,.34-.21,.41-.43,.83-.63,1.22-.08,.15-.15,.29-.23,.44-.18,.35-.37,.7-.55,1.04-.09,.16-.17,.31-.25,.47-.17,.31-.33,.62-.49,.92-.09,.16-.17,.32-.26,.47-.16,.29-.31,.57-.47,.85-.08,.15-.17,.3-.25,.45-.15,.27-.3,.54-.44,.8-.09,.15-.17,.3-.26,.46-.14,.24-.28,.49-.41,.72-.09,.15-.17,.3-.26,.45-.13,.23-.27,.46-.4,.69-.08,.14-.17,.28-.25,.42-.13,.22-.26,.44-.4,.66-.08,.14-.16,.27-.25,.41-.13,.21-.26,.43-.39,.64-.08,.13-.17,.27-.25,.4-.13,.21-.25,.41-.38,.61-.08,.13-.16,.26-.24,.38-.13,.2-.26,.4-.38,.6-.08,.12-.16,.25-.24,.37-.13,.2-.25,.39-.38,.58-.08,.12-.16,.25-.24,.37-.13,.2-.26,.4-.4,.6-.07,.11-.15,.22-.22,.33-.14,.21-.28,.41-.42,.62-.07,.1-.14,.21-.21,.31-.04,.06-.08,.12-.13,.19,.35,.54,.73,1.14,1.12,1.77,.22,.36,.43,.69,.65,1.03,3.97,6.31,12.23,19.43,36.22,20.34,.76,.03,1.53,.05,2.29,.05h.2s.22,0,.22,0c.38,0,.76,.01,1.13,.01,8.04,0,15.38-1.98,21.8-5.89,1.15-.67,2.22-1.37,3.21-2.09,5.98-4.33,10.87-10.15,14.16-16.82l.17-.32c.04-.07,.07-.14,.11-.21,.68-1.43,1.68-3.63,2.66-5.77,.79-1.72,1.56-3.41,2.13-4.63,5.27-12.78,9.03-18.86,14.88-24.05,.4-.35,.75-.65,1.09-.94h0c.93-.78,1.91-1.54,3.01-2.36,.14-.14,.28-.27,.42-.4l.12-.11,.15-.14c.43-.38,.86-.75,1.31-1.11Z"/>
    <path d="M225.96,145.22h21.64v-16.31c-4.98,5.22-10.42,9.39-16.22,12.49-.04,.02-.09,.04-.13,.07-.92,.49-1.84,.95-2.78,1.38-.09,.04-.18,.08-.26,.12-.75,.34-1.49,.68-2.25,.98v1.29Z"/>
    <path d="M406.09,145.2h21.13v-16.68c-.07,.06-.13,.13-.18,.19-.1,.11-.19,.22-.29,.34-.18,.21-.37,.42-.57,.64-.1,.11-.21,.23-.31,.34-.22,.24-.46,.49-.7,.73-.08,.08-.16,.17-.25,.26-.33,.33-.67,.67-1.03,1.01-.06,.06-.13,.12-.19,.18-.3,.28-.61,.56-.93,.85-.12,.11-.25,.22-.38,.33-.28,.24-.56,.49-.85,.73-.14,.12-.29,.24-.44,.36-.31,.25-.63,.51-.96,.76-.14,.11-.27,.21-.42,.32-.46,.36-.94,.71-1.45,1.07,0,0-.02,.01-.02,.02-.52,.37-1.06,.75-1.63,1.12-.14,.09-.29,.19-.43,.28-.43,.28-.86,.56-1.31,.85-.19,.12-.39,.24-.58,.36-.43,.27-.88,.54-1.34,.8-.2,.12-.4,.24-.61,.35-.53,.31-1.08,.61-1.65,.92-.14,.08-.27,.15-.41,.22-.73,.39-1.48,.79-2.26,1.18-.09,.04-.19,.09-.28,.14-.55,.27-1.1,.55-1.67,.82v1.48Z"/>
    <path d="M470.25,75.19h.36c17.73,0,22.06,8.6,25.54,15.51,.23,.47,.47,.93,.7,1.38,.15,.29,.27,.58,.4,.88,.35,.84,.71,1.7,2.13,3.07,.47,.46,1.02,.84,1.61,1.16,1,.53,2.15,.81,3.41,.84,1.26,.04,2.63-.18,4.09-.63,1.45-.46,2.99-1.15,4.55-2.07,6.03-3.51,4.29-9.84,2.46-14.29l-.3-.75c-.33-.82-.83-2.07-1.48-3.47-1.34-2.9-2.7-5.16-4.06-6.76-9.1-10.7-21.59-15.91-38.17-15.91-.8,0-1.61,.01-2.44,.04-19.99,.6-32.57,13.93-35.73,19.01,0,0-5.99,11.95-7.13,14.64-5.83,13.79-11.5,20.21-16.27,24.68-.7,.65-1.37,1.26-2.02,1.85-.57,.52-1.12,1.02-1.65,1.51-.17,.16-.34,.32-.5,.48-.46,.44-.88,.82-1.3,1.18l-.15,.12c-.42,.35-.77,.63-1.13,.91l-.28,.21c-.15,.11-.3,.21-.45,.32l-.06,.04c-4.63,4.16-10.62,6.45-16.85,6.45-13.91,0-25.23-11.32-25.23-25.23,0-6.34,2.34-12.33,6.54-16.94-.17,.13-.33,.26-.5,.39-.12,.1-.25,.2-.37,.3-.31,.26-.61,.52-.9,.79l-.18,.16c-.06,.05-.12,.11-.18,.16-2.99,2.96-5.9,6.71-8.63,11.13l-.07,.11c-1.56,2.54-3.04,5.25-4.45,8.12-.03,.06-.27,.51-.72,1.46-.2,.42-.44,.94-.71,1.55-.63,1.39-1.15,2.63-1.61,3.78-.18,.44-.35,.86-.51,1.27l-.35,.91h0s-.04,.1-.04,.1h0s-.08,.21-.08,.21c-.06,.16-.12,.31-.17,.47-.27,.72-.53,1.43-.78,2.14-.1,.28-.19,.55-.29,.83-.27,.79-.53,1.57-.77,2.33-.03,.09-.06,.18-.09,.27l-.4,1.32c-.13,.43-.23,.77-.29,.99,.89,2.59,8.9,23.08,39.58,23.08h.74c5.29-.06,12.97-.44,18.76-3.08l.59-.28c13.76-6.47,19.48-12.68,22.92-17.36l.08-.11c.39-.54,.76-1.05,1.09-1.52,.37-.54,.74-1.06,1.1-1.59,2.3-3.33,4.36-6.53,6.84-10.98,.32-.57,.64-1.15,.97-1.76,.24-.45,.49-.91,.75-1.39,.51-.96,1.04-1.97,1.59-3.04,.28-.54,.56-1.09,.85-1.66,.04-.09,.08-.17,.11-.26,.06-.16,.13-.31,.21-.47,.41-.79,.83-1.65,1.28-2.54,1.71-3.44,3.64-7.33,6.2-11.06,3.33-4.82,10.58-12.93,21.85-13Z"/>
    <path d="M196.17,76.73c.54-.17,1.12-.33,1.82-.5,3.42-1.05,7-1.37,10.72-.86l.13,.02c12.35,1.73,21.68,12.46,21.68,24.97,0,4.33-1.12,8.56-3.19,12.28,.04-.04,.08-.07,.12-.1,.15-.14,.3-.28,.44-.42,.43-.41,.86-.82,1.28-1.25,.19-.19,.38-.39,.57-.58,.41-.43,.82-.88,1.23-1.33,.15-.17,.31-.34,.46-.51,.54-.62,1.08-1.26,1.61-1.92,.12-.15,.25-.32,.37-.47,.42-.53,.83-1.07,1.24-1.62,.18-.24,.35-.48,.53-.72,.38-.53,.76-1.07,1.14-1.62,.15-.22,.3-.43,.45-.66,.51-.76,1.01-1.54,1.51-2.34,.09-.15,.18-.3,.27-.45,.41-.67,.82-1.36,1.22-2.06,.16-.28,.32-.56,.48-.84,.35-.63,.7-1.26,1.05-1.91,.14-.27,.29-.53,.43-.81,.47-.9,.94-1.82,1.41-2.77,.05-.1,.1-.21,.15-.32,.41-.85,.82-1.73,1.23-2.61,.14-.31,.28-.62,.42-.94,.33-.73,.65-1.48,.98-2.23,.13-.31,.27-.62,.4-.94,.44-1.05,.87-2.11,1.3-3.2v-17.87h-8.75v8.91l-2-2.08c-8.93-9.27-19.49-14.01-31.39-14.1-.22,0-.43,0-.63,0-23.02,0-39.12,19.18-46.66,30.61l-1.73,2.63-.39-3.12c-1.4-11.14-5.96-18.88-13.56-23-9.55-5.19-20.15-7.82-31.51-7.82-5.64,.23-11.23,.97-16.56,2.22-5.22,1.23-9.81,3.31-13.62,6.2l-.69,.52-.7-.51c-4.59-3.34-9.76-5.6-15.38-6.72-5.72-1.13-11.64-1.71-17.59-1.71-11.06,.45-21.34,3.31-30.51,8.5-8.93,5.06-13.46,15.31-13.46,30.47l-.12,52.1H27.72l.12-56.94c0-5.92,2.04-10.31,6.05-13.06,3.87-2.66,8.36-4.01,13.33-4.01s9.5,1.35,13.51,4c4.16,2.76,6.26,7.16,6.26,13.08v4.84l-.12,52.1h24.99l.12-56.94c0-5.93,2.11-10.33,6.26-13.08,4-2.65,8.55-4,13.51-4s9.5,1.35,13.51,4c4.15,2.75,6.26,7.16,6.26,13.08v47.05c0,3.14,1.1,5.62,3.36,7.6,2.19,1.92,4.88,2.29,8.79,2.29h12.9c.59-2.84,2.54-11.75,6.06-22.57l.05-.16,.17-.61c.04-.16,.1-.33,.15-.5,.03-.1,.05-.19,.09-.29,.06-.19,.12-.39,.18-.59,.04-.13,.07-.25,.11-.38,.06-.21,.13-.43,.2-.65,.04-.14,.08-.27,.13-.41,.07-.22,.14-.45,.22-.67,.05-.17,.1-.32,.16-.5,.07-.22,.15-.45,.23-.68,.06-.19,.12-.37,.19-.57,.08-.24,.17-.49,.26-.74,.07-.19,.13-.38,.2-.58,.09-.26,.19-.53,.29-.8,.07-.2,.14-.39,.22-.6,.1-.27,.2-.54,.31-.82,.08-.22,.16-.43,.24-.65,.1-.27,.21-.55,.32-.83,.09-.23,.18-.46,.27-.69,.11-.28,.23-.57,.35-.86,.1-.24,.19-.47,.29-.71,.12-.29,.25-.58,.37-.87,.11-.25,.21-.49,.32-.74,.13-.29,.26-.59,.4-.89,.11-.25,.22-.5,.34-.75,.14-.3,.29-.61,.43-.92,.12-.25,.23-.5,.35-.75,.15-.3,.3-.61,.45-.92,.13-.26,.25-.51,.38-.77,.15-.31,.32-.62,.48-.92,.13-.26,.26-.52,.4-.77,.16-.31,.34-.62,.51-.93,.14-.26,.28-.52,.42-.78,.17-.31,.35-.61,.53-.92,.15-.26,.3-.52,.45-.78,.18-.31,.37-.61,.56-.91,.16-.26,.31-.52,.47-.78,.19-.31,.39-.61,.59-.91,.16-.25,.32-.51,.49-.76,.21-.31,.42-.61,.63-.92,.17-.24,.33-.49,.5-.73,.22-.3,.44-.6,.66-.9,.17-.24,.34-.48,.52-.71,.23-.3,.46-.59,.69-.88,.18-.23,.36-.47,.55-.7,.24-.29,.48-.58,.72-.86,.19-.22,.37-.45,.56-.67,.25-.29,.51-.56,.76-.84,.19-.21,.38-.43,.58-.64,.26-.27,.53-.54,.8-.81,.2-.2,.4-.41,.6-.61,.28-.27,.56-.52,.84-.78,.2-.19,.4-.38,.61-.56,.29-.25,.58-.49,.88-.74,.21-.18,.42-.36,.63-.53,.3-.24,.61-.46,.91-.69,.22-.16,.43-.33,.65-.49,.33-.23,.66-.45,.99-.67,.21-.14,.41-.29,.62-.42,.35-.22,.71-.42,1.06-.63,.21-.12,.41-.25,.61-.36,.41-.22,.83-.43,1.24-.64,.16-.08,.32-.17,.49-.25,.59-.28,1.18-.54,1.79-.78l.12-.05s.03-.01,.05-.02l.04-.02s.02,0,.02,0c.47-.18,.88-.33,1.29-.47l.18-.07c.12-.05,.25-.09,.37-.13Z"/>
    <path d="M345.85,111.8s0,0,0,0h0c.16-.42,.33-.85,.51-1.29,.46-1.19,.99-2.43,1.64-3.87,.28-.62,.53-1.16,.73-1.59,.49-1.04,.75-1.53,.75-1.53,1.42-2.89,2.94-5.67,4.5-8.21l.12-.19c2.82-4.62,5.84-8.52,8.98-11.56,.09-.09,.19-.18,.29-.27l.08-.07h.01c.33-.32,.67-.62,1.02-.91,4.81-4.01,11.89-6.69,18.79-7.11,.63-.04,1.26-.06,1.88-.06h.15c.08,0,.14,0,.21,0,1.12,0,2.27,.08,3.42,.24h.09c12.39,1.74,21.72,12.48,21.72,24.99,0,3.55-.76,7.03-2.17,10.22,4.76-4.49,9.92-10.53,15.47-23.66,1.15-2.7,2.21-5.11,3.16-7.15v-18.34h-8.61l.15,9.06-2.08-2.31c-3.2-3.56-4.84-4.64-9.69-7.86-5.88-3.89-14.56-6.08-24.45-6.17h-.41c-23.51,0-37.84,17.43-45.72,32.05-9.49,17.61-12.68,36.12-12.68,41.85v3.1l-27.76-31.69,31.5-38.03h-27.42l-29.36,34.76V62.13h-20.74s0,18.32,0,18.32l-.08,.21c-.49,1.26-.99,2.5-1.5,3.71-.02,.04-.04,.09-.06,.13-.49,1.16-.98,2.3-1.48,3.41-.06,.13-.12,.25-.18,.38-.46,1.01-.93,2.01-1.4,2.99-.09,.18-.18,.36-.27,.54-.45,.9-.89,1.8-1.35,2.66-.11,.2-.22,.39-.32,.59-.44,.83-.88,1.65-1.33,2.44-.13,.22-.26,.43-.38,.65-.44,.75-.87,1.5-1.32,2.23-.14,.23-.29,.45-.44,.68-.43,.69-.87,1.37-1.31,2.03-.16,.24-.32,.46-.48,.69-.43,.63-.86,1.26-1.3,1.86-.17,.24-.35,.45-.53,.69-.43,.57-.87,1.15-1.31,1.7-.19,.23-.37,.44-.56,.67-.44,.53-.87,1.06-1.32,1.56-.2,.22-.4,.43-.6,.65-.44,.48-.88,.96-1.32,1.42-.2,.21-.41,.4-.62,.6-.45,.44-.9,.89-1.35,1.31-.22,.2-.44,.38-.65,.57-.45,.4-.9,.8-1.36,1.18-.22,.18-.44,.34-.66,.51-.47,.37-.93,.74-1.4,1.08-.22,.16-.44,.3-.66,.45-.48,.34-.96,.67-1.45,.99-.22,.14-.44,.26-.65,.39-.48,.29-.96,.59-1.46,.87-.44,.34-.92,.68-1.44,1.04l-.27,.18c-.56,.36-1.08,.68-1.6,.97-.54,.3-1.08,.57-1.7,.86-.12,.06-.25,.11-.38,.17l-.14,.06c-.4,.17-.8,.33-1.21,.48l-.13,.05c-.16,.06-.33,.12-.49,.18-.52,.18-1.04,.34-1.57,.48-.09,.03-.14,.04-.2,.06-2.08,.54-4.23,.82-6.39,.82-13.91,0-25.23-11.32-25.23-25.23,0-4.54,1.2-8.89,3.41-12.69-.14,.14-.28,.28-.41,.43-.15,.16-.3,.32-.45,.48-.34,.37-.68,.75-1.01,1.14-.13,.15-.25,.3-.38,.45-.28,.33-.55,.66-.82,1-.15,.19-.29,.38-.44,.56-.22,.28-.44,.56-.65,.85-.14,.19-.29,.38-.43,.58-.25,.34-.49,.68-.73,1.02-.12,.17-.24,.34-.36,.52-.29,.42-.57,.84-.84,1.26-.13,.2-.25,.39-.38,.59-.19,.3-.38,.6-.57,.9-.13,.2-.25,.41-.38,.61-.2,.33-.4,.66-.59,.99-.1,.16-.19,.33-.29,.49-.27,.47-.54,.94-.8,1.41-.1,.19-.2,.37-.3,.55-.17,.32-.34,.63-.51,.95-.11,.2-.21,.4-.31,.6-.17,.33-.33,.65-.5,.97-.09,.17-.17,.34-.26,.51-.23,.47-.46,.94-.68,1.4-.07,.15-.14,.3-.21,.46-.16,.34-.31,.67-.47,1.01-.08,.18-.16,.36-.25,.54-.14,.32-.29,.64-.42,.96-.07,.16-.14,.31-.2,.47-.2,.45-.39,.9-.57,1.34-.04,.09-.07,.18-.11,.27-.15,.37-.3,.73-.44,1.08-.06,.15-.12,.3-.18,.45-.12,.3-.24,.6-.35,.9-.05,.14-.11,.27-.16,.41-.15,.39-.29,.76-.43,1.13-.01,.03-.03,.07-.04,.1-.15,.4-.29,.79-.42,1.16-.04,.11-.08,.23-.12,.34-.1,.28-.19,.54-.28,.81-.04,.11-.07,.21-.11,.32-.1,.3-.2,.6-.3,.88-.02,.05-.03,.09-.05,.14-.11,.33-.21,.64-.31,.94-.02,.08-.05,.15-.07,.23-.07,.22-.14,.44-.2,.64-.02,.08-.05,.16-.07,.23-.06,.21-.13,.41-.18,.6-.01,.04-.03,.09-.04,.13-.06,.21-.12,.41-.17,.59,2.66,3.85,17.18,23.15,40.35,23.3,.27,0,.52,0,.78,0,6.19,0,12.24-1.12,18-3.34l.17-.07c8.38-3.26,16.05-8.74,22.85-16.28l2.2-2.49,.33-.38h0s0,0,0,0l.02,3.05h0v19.32h20.62v-40.81s36.49,40.8,36.49,40.8l29.5-.05c.49-2.82,2.11-11.37,5.54-21.99l.39-1.36c.04-.14,.14-.53,.31-1.09h0s0-.02,0-.02h0s.46-1.51,.46-1.51c.63-2,1.35-4.07,2.14-6.17l.11-.29c.11-.29,.22-.57,.31-.82"/>
    <polygon class="cls-1" points="539.28 83.23 539.27 83.24 539.28 83.23 539.28 83.23"/>
    <path class="cls-1" d="M523.57,102.71c.1-.21,.2-.42,.3-.62-.1,.2-.2,.41-.3,.62Z"/>
    <path class="cls-1" d="M525.4,99.07c.12-.23,.24-.44,.36-.67-.12,.22-.24,.44-.36,.67Z"/>
    <path class="cls-1" d="M522.73,104.51c.11-.24,.21-.47,.32-.7-.11,.23-.21,.46-.32,.7Z"/>
    <path class="cls-1" d="M524.5,100.8c.1-.2,.21-.41,.31-.61-.1,.2-.21,.4-.31,.61Z"/>
    <path class="cls-1" d="M521.9,106.37c.1-.24,.21-.47,.31-.71-.1,.23-.21,.47-.31,.71Z"/>
    <path class="cls-1" d="M518.72,113.59c.53-1.17,1.04-2.26,1.45-3.15-.41,.89-.92,1.98-1.45,3.15Z"/>
    <path class="cls-1" d="M516.58,118.25c.03-.06,.05-.12,.08-.18-.03,.06-.05,.12-.08,.18Z"/>
    <path class="cls-1" d="M521.04,108.35c.09-.22,.18-.42,.27-.64-.09,.21-.18,.42-.27,.64Z"/>
    <path class="cls-1" d="M531.19,90.48c.2-.22,.4-.45,.6-.66-.2,.22-.4,.44-.6,.66Z"/>
    <path class="cls-1" d="M515.92,119.68c.18-.39,.38-.82,.58-1.26-.2,.44-.4,.86-.58,1.26Z"/>
    <path class="cls-1" d="M580.62,111.61c-.31,.32-.63,.63-.96,.95,.32-.31,.64-.63,.96-.95Z"/>
    <path class="cls-1" d="M530.38,91.44c.2-.24,.39-.47,.59-.7-.2,.23-.4,.46-.59,.7Z"/>
    <path class="cls-1" d="M526.16,97.7c.14-.24,.27-.47,.41-.7-.14,.23-.27,.46-.41,.7Z"/>
    <path class="cls-1" d="M526.91,96.41c.15-.24,.29-.48,.44-.72-.15,.23-.29,.47-.44,.72Z"/>
    <path class="cls-1" d="M528.27,94.28c.63-.93,1.27-1.79,1.93-2.61-.66,.82-1.3,1.68-1.93,2.61Z"/>
    <path class="cls-1" d="M527.65,95.22c.16-.25,.32-.5,.49-.75-.16,.24-.32,.5-.49,.75Z"/>
    <path class="cls-1" d="M592.07,96.66c.22-.35,.43-.7,.64-1.05-.21,.35-.42,.7-.64,1.05Z"/>
    <path class="cls-1" d="M581.12,111.09c.29-.3,.58-.61,.87-.92-.29,.31-.58,.62-.87,.92Z"/>
    <path class="cls-1" d="M577.77,114.33c.49-.43,.97-.88,1.44-1.33-.47,.45-.95,.9-1.44,1.33Z"/>
    <path class="cls-1" d="M585.01,106.7c.41-.5,.8-1,1.19-1.5-.39,.5-.79,1-1.19,1.5Z"/>
    <path class="cls-1" d="M576.28,115.6c.48-.4,.96-.81,1.43-1.22-.47,.42-.94,.82-1.43,1.22Z"/>
    <path class="cls-1" d="M583.77,108.18c.39-.46,.78-.92,1.15-1.38-.38,.46-.76,.92-1.15,1.38Z"/>
    <path class="cls-1" d="M582.48,109.64c.3-.33,.59-.66,.88-.99-.29,.33-.58,.66-.88,.99Z"/>
    <path class="cls-1" d="M569.19,120.46c.57-.31,1.13-.64,1.69-.98-.56,.34-1.12,.67-1.69,.98Z"/>
    <path class="cls-1" d="M574.74,116.83c.35-.27,.7-.55,1.05-.83-.35,.28-.7,.56-1.05,.83Z"/>
    <path class="cls-1" d="M571.41,119.14c.38-.24,.75-.48,1.12-.73-.37,.25-.74,.49-1.12,.73Z"/>
    <path class="cls-1" d="M573.13,118c.35-.24,.69-.49,1.03-.74-.34,.25-.68,.5-1.03,.74Z"/>
    <path class="cls-1" d="M515.62,120.32c.08-.17,.16-.34,.24-.52-.08,.18-.16,.35-.24,.52Z"/>
    <path class="cls-1" d="M593.84,93.67c.19-.33,.37-.65,.55-.97-.18,.32-.36,.65-.55,.97Z"/>
    <path class="cls-1" d="M586.56,104.73c.27-.35,.53-.7,.79-1.05-.26,.35-.53,.7-.79,1.05Z"/>
    <path class="cls-1" d="M593,95.12c.19-.32,.38-.64,.56-.96-.18,.32-.37,.64-.56,.96Z"/>
    <path class="cls-1" d="M596.82,88.07c.14-.29,.28-.57,.42-.85-.13,.28-.27,.56-.42,.85Z"/>
    <path class="cls-1" d="M597.39,86.9c.14-.29,.28-.57,.41-.85-.13,.28-.27,.56-.41,.85Z"/>
    <path class="cls-1" d="M594.62,92.29c.5-.91,.97-1.8,1.41-2.64-.44,.84-.91,1.73-1.41,2.64Z"/>
    <path class="cls-1" d="M588.86,101.59c.24-.35,.48-.7,.72-1.04-.24,.35-.47,.69-.72,1.04Z"/>
    <path class="cls-1" d="M587.76,103.13c.24-.33,.48-.66,.71-.99-.23,.33-.47,.66-.71,.99Z"/>
    <path class="cls-1" d="M590.88,98.58c.32-.5,.63-1,.94-1.49-.31,.49-.62,.99-.94,1.49Z"/>
    <path class="cls-1" d="M589.89,100.07c.31-.47,.62-.94,.92-1.4-.3,.46-.61,.93-.92,1.4Z"/>
    <path class="cls-1" d="M596.17,89.37c.17-.33,.33-.65,.49-.96-.16,.31-.32,.63-.49,.96Z"/>
    <path class="cls-1" d="M532.92,85.45c.36-.32,.72-.63,1.09-.94h0s0,0,0,0c-.35,.29-.69,.59-1.09,.94Z"/>
    <path class="cls-1" d="M537.02,82.15c.17-.17,.34-.33,.52-.49l.02-.02-.12,.11c-.14,.13-.28,.26-.42,.4Z"/>
    <path class="cls-1" d="M515.91,114.13c-.98,2.14-1.98,4.34-2.66,5.77,.68-1.43,1.68-3.63,2.66-5.77Z"/>
    <path class="cls-1" d="M597.6,80.74c-.05,.12-.1,.25-.17,.39,.06-.14,.12-.27,.17-.39Z"/>
    <path class="cls-1" d="M597.38,81.25c-.08,.19-.16,.39-.26,.61,.1-.22,.18-.42,.26-.61Z"/>
    <path class="cls-1" d="M576.08,112.68s-.01,.03-.02,.04c11.41-10.13,18.72-25.45,21.06-30.86-2.35,5.41-9.66,20.68-21.04,30.82Z"/>
    <path class="cls-1" d="M539.27,83.24l-.24,.22s-.03,.03-.05,.05c.05-.04,.09-.09,.14-.13l.15-.14Z"/>
    <path class="cls-1" d="M523.05,103.81c.17-.37,.34-.74,.51-1.09-.17,.36-.34,.72-.51,1.09Z"/>
    <path class="cls-1" d="M523.86,102.09c.21-.44,.43-.87,.64-1.29-.21,.42-.43,.85-.64,1.29Z"/>
    <path class="cls-1" d="M520.17,110.44c.3-.72,.59-1.41,.87-2.09-.29,.68-.58,1.37-.87,2.09Z"/>
    <path class="cls-1" d="M516.5,118.42c.03-.06,.05-.11,.08-.17-.03,.06-.05,.12-.08,.17Z"/>
    <path class="cls-1" d="M522.21,105.66c.17-.39,.35-.78,.52-1.16-.17,.38-.35,.76-.52,1.16Z"/>
    <path class="cls-1" d="M521.32,107.71c.2-.46,.39-.9,.58-1.34-.19,.44-.38,.88-.58,1.34Z"/>
    <path class="cls-1" d="M531.85,89.74s-.05,.05-.07,.08c.02-.02,.04-.05,.07-.07,0,0,0,0,0,0Z"/>
    <path class="cls-1" d="M515.87,119.8s.04-.08,.06-.12c-.02,.04-.04,.08-.06,.12Z"/>
    <path class="cls-1" d="M530.2,91.66c.06-.07,.12-.15,.18-.22-.06,.07-.12,.15-.18,.22Z"/>
    <path class="cls-1" d="M530.97,90.73c.07-.08,.15-.17,.22-.25-.07,.08-.15,.17-.22,.25Z"/>
    <path class="cls-1" d="M524.81,100.19c.2-.38,.39-.76,.58-1.12-.19,.36-.39,.74-.58,1.12Z"/>
    <path class="cls-1" d="M527.35,95.69c.1-.16,.2-.31,.3-.47-.1,.16-.2,.31-.3,.47Z"/>
    <path class="cls-1" d="M525.76,98.41c.13-.24,.26-.48,.4-.71-.13,.23-.26,.47-.4,.71Z"/>
    <path class="cls-1" d="M526.56,96.99c.12-.2,.23-.39,.35-.58-.12,.19-.23,.38-.35,.58Z"/>
    <path class="cls-1" d="M593.56,94.16c.09-.16,.19-.33,.28-.49-.09,.16-.19,.33-.28,.49Z"/>
    <path class="cls-1" d="M583.36,108.65c.14-.16,.28-.31,.41-.47-.14,.16-.28,.31-.41,.47Z"/>
    <path class="cls-1" d="M515.56,120.46s.04-.09,.07-.14c-.02,.05-.04,.09-.07,.14Z"/>
    <path class="cls-1" d="M586.2,105.2c.12-.16,.24-.31,.36-.47-.12,.16-.24,.31-.36,.47Z"/>
    <path class="cls-1" d="M579.21,113c.15-.14,.3-.29,.45-.44-.15,.15-.3,.29-.45,.44Z"/>
    <path class="cls-1" d="M584.93,106.8s.06-.07,.08-.1c-.03,.03-.06,.07-.08,.1Z"/>
    <path class="cls-1" d="M587.35,103.68c.14-.18,.27-.37,.41-.55-.13,.18-.27,.37-.41,.55Z"/>
    <path class="cls-1" d="M570.88,119.48c.18-.11,.36-.23,.53-.34-.18,.11-.35,.23-.53,.34Z"/>
    <path class="cls-1" d="M577.71,114.38s.04-.04,.06-.05c-.02,.02-.04,.04-.06,.05Z"/>
    <path class="cls-1" d="M572.53,118.41c.2-.13,.4-.27,.6-.41-.2,.14-.4,.28-.6,.41Z"/>
    <path class="cls-1" d="M574.16,117.26c.19-.14,.39-.29,.58-.44-.19,.15-.39,.29-.58,.44Z"/>
    <path class="cls-1" d="M575.79,116c.16-.13,.33-.26,.49-.4-.16,.13-.33,.26-.49,.4Z"/>
    <path class="cls-1" d="M581.99,110.17c.16-.18,.33-.35,.49-.53-.16,.18-.33,.36-.49,.53Z"/>
    <path class="cls-1" d="M596.02,89.65c.05-.09,.09-.18,.14-.28-.05,.09-.09,.18-.14,.28Z"/>
    <path class="cls-1" d="M596.65,88.41c.06-.12,.12-.23,.17-.35-.06,.12-.11,.23-.17,.35Z"/>
    <path class="cls-1" d="M588.47,102.14c.13-.18,.26-.37,.39-.55-.13,.18-.26,.37-.39,.55Z"/>
    <path class="cls-1" d="M597.8,86.05c.03-.07,.07-.15,.1-.22-.03,.07-.07,.15-.1,.22Z"/>
    <path class="cls-1" d="M594.39,92.69c.07-.13,.15-.27,.22-.4-.07,.13-.15,.27-.22,.4Z"/>
    <path class="cls-1" d="M597.24,87.22c.05-.11,.1-.21,.15-.31-.05,.1-.1,.21-.15,.31Z"/>
    <path class="cls-1" d="M592.71,95.61c.1-.17,.2-.33,.29-.5-.1,.17-.19,.33-.29,.5Z"/>
    <path class="cls-1" d="M590.81,98.67s.04-.06,.06-.1c-.02,.03-.04,.06-.06,.1Z"/>
    <path class="cls-1" d="M589.57,100.54c.11-.16,.21-.32,.32-.47-.11,.16-.21,.31-.32,.47Z"/>
    <path class="cls-1" d="M591.82,97.08c.09-.14,.17-.28,.26-.42-.09,.14-.17,.28-.26,.42Z"/>
    <path class="cls-1" d="M528.13,94.48c.05-.07,.09-.13,.14-.2-.05,.07-.09,.13-.14,.2Z"/>
    <path class="cls-1" d="M581.12,111.09c-.17,.17-.33,.35-.5,.52,.17-.17,.34-.35,.5-.52Z"/>
    <path class="cls-1" d="M518.72,113.59c-.23,.5-.46,1-.69,1.51-.46,1.01-.93,2.03-1.36,2.98,.44-.95,.9-1.97,1.36-2.98,.23-.51,.46-1.01,.69-1.51Z"/>
    <path class="cls-1" d="M440.26,108.26c.18-.34,.36-.69,.55-1.04-.18,.35-.37,.7-.55,1.04Z"/>
    <path class="cls-1" d="M439.51,109.65c.16-.3,.33-.61,.49-.92-.17,.31-.33,.62-.49,.92Z"/>
    <path class="cls-1" d="M441.03,106.79c.21-.4,.42-.81,.63-1.22-.21,.41-.43,.83-.63,1.22Z"/>
    <path class="cls-1" d="M437.42,113.39c.14-.24,.28-.48,.41-.72-.14,.24-.28,.49-.41,.72Z"/>
    <path class="cls-1" d="M436.11,115.62c.13-.22,.26-.44,.4-.66-.13,.22-.26,.44-.4,.66Z"/>
    <path class="cls-1" d="M438.79,110.97c.15-.28,.31-.56,.47-.85-.16,.29-.31,.57-.47,.85Z"/>
    <path class="cls-1" d="M436.76,114.53c.13-.22,.27-.46,.4-.69-.13,.23-.27,.46-.4,.69Z"/>
    <path class="cls-1" d="M438.1,112.21c.15-.26,.3-.53,.44-.8-.15,.27-.3,.54-.44,.8Z"/>
    <path class="cls-1" d="M441.84,105.23c.28-.54,.56-1.09,.85-1.66-.29,.57-.57,1.12-.85,1.66Z"/>
    <path class="cls-1" d="M597.12,81.85s0,0,0,0t0,0Z"/>
    <path class="cls-1" d="M597.43,81.14s-.03,.07-.05,.11c.02-.04,.03-.07,.05-.11Z"/>
    <path class="cls-1" d="M516.68,77.77c-.11-.25-.22-.52-.34-.79,.12,.28,.23,.54,.34,.79Z"/>
    <path class="cls-1" d="M502.09,100.05c.28,.07,.57,.13,.87,.17-.29-.04-.58-.1-.87-.17Z"/>
    <path class="cls-1" d="M435.48,116.66c.13-.21,.26-.42,.39-.64-.13,.21-.26,.43-.39,.64Z"/>
    <path class="cls-1" d="M517.04,78.63c-.09-.23-.19-.47-.3-.73,.11,.26,.21,.5,.3,.73Z"/>
    <path class="cls-1" d="M505.59,100.31c.25-.02,.49-.04,.74-.08-.25,.03-.5,.06-.74,.08Z"/>
    <path class="cls-1" d="M503.29,100.26c.25,.03,.5,.05,.75,.07-.25-.01-.5-.04-.75-.07Z"/>
    <path class="cls-1" d="M517.36,79.41c-.08-.2-.17-.43-.27-.68,.1,.25,.19,.48,.27,.68Z"/>
    <path class="cls-1" d="M507.96,99.95c.4-.1,.81-.21,1.22-.33-.41,.13-.82,.24-1.22,.33Z"/>
    <path class="cls-1" d="M506.76,100.18c.27-.04,.54-.1,.81-.15-.27,.06-.54,.11-.81,.15Z"/>
    <path class="cls-1" d="M505.16,100.34c-.25,0-.49,.01-.73,0,.24,0,.48,0,.73,0Z"/>
    <path class="cls-1" d="M434.85,117.67c.13-.2,.25-.4,.38-.61-.13,.21-.25,.41-.38,.61Z"/>
    <path class="cls-1" d="M537.02,82.15c-1.1,.81-2.08,1.58-3.01,2.35,.96-.8,1.94-1.56,3.01-2.35Z"/>
    <path class="cls-1" d="M433.6,119.61c.13-.19,.25-.39,.38-.58-.13,.2-.25,.39-.38,.58Z"/>
    <path class="cls-1" d="M432.96,120.57c.13-.2,.26-.4,.4-.6-.13,.2-.26,.4-.4,.6Z"/>
    <path class="cls-1" d="M432.32,121.52c.14-.21,.28-.41,.42-.62-.14,.21-.28,.41-.42,.62Z"/>
    <path class="cls-1" d="M434.22,118.65c.13-.2,.26-.4,.38-.6-.13,.2-.26,.4-.38,.6Z"/>
    <path class="cls-1" d="M437.42,108.61c-.33,.61-.65,1.19-.97,1.76,.32-.57,.64-1.15,.97-1.76Z"/>
    <path class="cls-1" d="M504.4,98.02c-1.26-.04-2.41-.32-3.41-.84,1.01,.53,2.15,.81,3.41,.84Z"/>
    <path class="cls-1" d="M247.6,128.89c-4.99,5.22-10.42,9.4-16.22,12.5,5.8-3.09,11.23-7.27,16.22-12.49h0Z"/>
    <polygon class="cls-1" points="249.58 123.21 249.91 122.84 249.91 122.84 249.58 123.21"/>
    <path class="cls-1" d="M426.17,129.69c.2-.21,.38-.43,.57-.64-.18,.21-.37,.42-.57,.64Z"/>
    <path class="cls-1" d="M425.17,130.76c.24-.25,.47-.49,.7-.73-.22,.24-.46,.49-.7,.73Z"/>
    <path class="cls-1" d="M424.92,131.02c-.33,.33-.67,.67-1.03,1.01,.36-.34,.7-.68,1.03-1.01Z"/>
    <path class="cls-1" d="M422.77,133.06c.32-.29,.63-.57,.93-.85-.3,.28-.61,.56-.93,.85Z"/>
    <polygon class="cls-1" points="346.89 112.33 346.89 112.33 346.89 112.33 346.89 112.33"/>
    <path class="cls-1" d="M517.09,78.74s-.03-.07-.04-.1c.01,.03,.03,.07,.04,.1Z"/>
    <path class="cls-1" d="M434.61,118.05c.08-.13,.16-.26,.24-.38-.08,.13-.16,.26-.24,.38Z"/>
    <path class="cls-1" d="M516.34,76.97c-.03-.07-.06-.14-.09-.21,.03,.07,.06,.14,.09,.21Z"/>
    <path class="cls-1" d="M433.98,119.02c.08-.12,.16-.25,.24-.37-.08,.12-.16,.25-.24,.37Z"/>
    <path class="cls-1" d="M432.74,120.9c.07-.11,.15-.22,.22-.33-.07,.11-.15,.22-.22,.33Z"/>
    <path class="cls-1" d="M432.11,121.84c.07-.1,.14-.21,.21-.31-.07,.1-.14,.21-.21,.31Z"/>
    <path class="cls-1" d="M435.23,117.06c.08-.13,.16-.26,.25-.4-.08,.13-.17,.27-.25,.4Z"/>
    <path class="cls-1" d="M440.8,107.23c.08-.15,.15-.29,.23-.44-.08,.15-.15,.29-.23,.44Z"/>
    <path class="cls-1" d="M440,108.73c.08-.16,.17-.31,.25-.47-.09,.16-.17,.31-.25,.47Z"/>
    <path class="cls-1" d="M435.87,116.02c.08-.13,.16-.27,.25-.41-.08,.14-.16,.27-.25,.41Z"/>
    <path class="cls-1" d="M504.43,100.34c-.13,0-.26,0-.39-.01,.13,0,.26,0,.39,.01Z"/>
    <path class="cls-1" d="M445.57,97.72h0c-.44,.87-.87,1.72-1.28,2.55-.45,.91-.88,1.77-1.29,2.58,.41-.8,.84-1.67,1.29-2.57,.41-.83,.83-1.68,1.28-2.55Z"/>
    <path class="cls-1" d="M441.67,105.57c.06-.11,.12-.22,.17-.34-.06,.12-.12,.22-.17,.34Z"/>
    <path class="cls-1" d="M439.25,110.12c.09-.16,.17-.31,.26-.47-.09,.16-.17,.32-.26,.47Z"/>
    <path class="cls-1" d="M437.16,113.84c.09-.15,.17-.3,.26-.45-.09,.15-.17,.3-.26,.45Z"/>
    <path class="cls-1" d="M436.51,114.95c.08-.14,.17-.28,.25-.42-.08,.14-.17,.28-.25,.42Z"/>
    <path class="cls-1" d="M437.84,112.67c.09-.15,.17-.3,.26-.46-.09,.15-.17,.3-.26,.46Z"/>
    <path class="cls-1" d="M438.54,111.42c.08-.15,.17-.3,.25-.45-.08,.15-.17,.3-.25,.45Z"/>
    <path class="cls-1" d="M433.36,119.97c.08-.12,.16-.25,.24-.37-.08,.12-.16,.25-.24,.37Z"/>
    <path class="cls-1" d="M502.96,100.22c.11,.02,.22,.03,.33,.04-.11-.01-.22-.02-.33-.04Z"/>
    <path class="cls-1" d="M516.74,77.9s-.04-.09-.06-.14c.02,.05,.04,.09,.06,.14Z"/>
    <path class="cls-1" d="M505.16,100.34c.14,0,.28-.01,.43-.02-.14,0-.29,.02-.43,.02Z"/>
    <path class="cls-1" d="M507.57,100.03c.13-.03,.26-.05,.39-.08-.13,.03-.26,.05-.39,.08Z"/>
    <path class="cls-1" d="M506.33,100.24c.14-.02,.29-.03,.43-.06-.15,.02-.29,.04-.43,.06Z"/>
    <path class="cls-1" d="M501.92,100.02c.05,.01,.11,.02,.17,.04-.06-.01-.11-.02-.17-.04Z"/>
    <path class="cls-1" d="M423.69,132.21c.06-.06,.13-.12,.19-.18-.06,.06-.13,.12-.19,.18Z"/>
    <path class="cls-1" d="M425.17,130.76c-.08,.08-.16,.17-.25,.26,.08-.09,.16-.17,.25-.26Z"/>
    <path class="cls-1" d="M426.74,129.05c.1-.11,.2-.23,.29-.34-.1,.11-.19,.22-.29,.34Z"/>
    <path class="cls-1" d="M439.76,104.18c-.55,1.08-1.08,2.09-1.59,3.04,.51-.96,1.04-1.97,1.59-3.04Z"/>
    <path class="cls-1" d="M347.63,113.65h0s-.08,.2-.08,.2c-.06,.16-.11,.32-.17,.47,.06-.16,.12-.31,.17-.47l.08-.2Z"/>
    <path class="cls-1" d="M366.33,83.81c-.12,.1-.25,.2-.37,.3,.12-.1,.25-.2,.37-.3Z"/>
    <path class="cls-1" d="M346.31,117.29c.1-.28,.19-.55,.29-.83-.1,.28-.19,.55-.29,.83Z"/>
    <path class="cls-1" d="M508.49,97.39c-1.46,.46-2.83,.67-4.09,.63,1.26,.04,2.63-.17,4.09-.63Z"/>
    <polygon class="cls-1" points="342.35 122.29 342.33 122.21 342.35 122.29 342.35 122.29"/>
    <path class="cls-1" d="M385.16,75.13c-.62,0-1.25,.03-1.88,.06,.63-.04,1.26-.06,1.88-.06Z"/>
    <rect class="cls-1" x="342.77" y="120.69" width="0" height=".01" transform="translate(116.92 405.4) rotate(-70.97)"/>
    <path class="cls-1" d="M364.49,82.3c-.35,.29-.69,.6-1.02,.9h-.01s.03-.02,.03-.02c.32-.3,.65-.6,1-.89Z"/>
    <path class="cls-1" d="M162.69,122.48l.15-.52c.05-.18,.11-.39,.17-.59-.05,.17-.1,.35-.15,.5l-.17,.61Z"/>
    <path class="cls-1" d="M176.97,91.75c-.22,.3-.45,.6-.66,.9,.22-.3,.44-.6,.66-.9Z"/>
    <path class="cls-1" d="M173.63,96.75c-.19,.3-.37,.61-.56,.91,.18-.31,.37-.61,.56-.91Z"/>
    <path class="cls-1" d="M178.18,90.15c-.23,.29-.46,.58-.69,.88,.23-.3,.46-.59,.69-.88Z"/>
    <path class="cls-1" d="M174.69,95.06c-.2,.3-.4,.61-.59,.91,.19-.31,.39-.61,.59-.91Z"/>
    <path class="cls-1" d="M175.81,93.38c-.21,.31-.42,.61-.63,.92,.21-.31,.42-.61,.63-.92Z"/>
    <path class="cls-1" d="M172.63,98.44c-.18,.31-.36,.61-.53,.92,.17-.31,.35-.61,.53-.92Z"/>
    <path class="cls-1" d="M191.81,78.52c-.42,.21-.84,.41-1.24,.64,.41-.22,.83-.43,1.24-.64Z"/>
    <path class="cls-1" d="M188.26,80.57c-.33,.22-.67,.44-.99,.67,.33-.23,.66-.45,.99-.67Z"/>
    <path class="cls-1" d="M194.09,77.49c-.61,.24-1.2,.5-1.79,.78,.59-.28,1.18-.54,1.79-.78Z"/>
    <path class="cls-1" d="M186.62,81.74c-.3,.23-.61,.45-.91,.69,.3-.24,.61-.46,.91-.69Z"/>
    <path class="cls-1" d="M189.95,79.52c-.36,.21-.71,.41-1.06,.63,.35-.22,.71-.42,1.06-.63Z"/>
    <path class="cls-1" d="M182.15,85.65c-.27,.27-.54,.53-.8,.81,.26-.27,.53-.54,.8-.81Z"/>
    <path class="cls-1" d="M195.62,76.93c-.42,.13-.83,.29-1.29,.47,.42-.16,.85-.32,1.29-.47Z"/>
    <path class="cls-1" d="M179.45,88.6c-.24,.29-.49,.57-.72,.86,.24-.29,.48-.58,.72-.86Z"/>
    <path class="cls-1" d="M180.78,87.09c-.25,.28-.51,.55-.76,.84,.25-.29,.51-.56,.76-.84Z"/>
    <path class="cls-1" d="M185.08,82.96c-.29,.25-.59,.49-.88,.74,.29-.25,.58-.49,.88-.74Z"/>
    <path class="cls-1" d="M163.94,118.37c-.07,.23-.15,.46-.22,.67,.07-.22,.14-.45,.22-.67Z"/>
    <path class="cls-1" d="M163.59,119.45c-.07,.22-.14,.45-.2,.65,.06-.21,.13-.43,.2-.65Z"/>
    <path class="cls-1" d="M164.32,117.19c-.08,.23-.15,.46-.23,.68,.07-.22,.15-.45,.23-.68Z"/>
    <path class="cls-1" d="M227.89,112.11c-.15,.14-.29,.29-.44,.42,.15-.14,.3-.28,.44-.42Z"/>
    <path class="cls-1" d="M163.28,120.48c-.06,.2-.12,.41-.18,.59,.06-.19,.12-.39,.18-.59Z"/>
    <path class="cls-1" d="M229.73,110.27c-.19,.2-.38,.39-.57,.58,.19-.19,.38-.39,.57-.58Z"/>
    <path class="cls-1" d="M165.26,114.5c-.1,.27-.2,.54-.29,.8,.09-.26,.19-.53,.29-.8Z"/>
    <path class="cls-1" d="M165.78,113.09c-.1,.27-.21,.55-.31,.82,.1-.27,.2-.54,.31-.82Z"/>
    <path class="cls-1" d="M241.72,93.01c-.14,.27-.29,.54-.43,.81,.14-.27,.29-.53,.43-.81Z"/>
    <path class="cls-1" d="M238.54,98.63c-.09,.15-.18,.3-.27,.45,.09-.15,.18-.3,.27-.45Z"/>
    <path class="cls-1" d="M236.75,101.42c-.15,.22-.3,.44-.45,.66,.15-.22,.3-.43,.45-.66Z"/>
    <path class="cls-1" d="M240.24,95.73c-.16,.28-.32,.56-.48,.84,.16-.28,.32-.56,.48-.84Z"/>
    <path class="cls-1" d="M243.27,89.92c-.05,.1-.1,.21-.15,.32,.05-.1,.1-.21,.15-.32Z"/>
    <path class="cls-1" d="M246.3,83.21c-.13,.32-.27,.62-.4,.94,.13-.31,.27-.62,.4-.94Z"/>
    <path class="cls-1" d="M244.92,86.37c-.14,.31-.28,.63-.42,.94,.14-.31,.28-.62,.42-.94Z"/>
    <path class="cls-1" d="M164.77,115.88c-.09,.25-.18,.5-.26,.74,.08-.24,.17-.49,.26-.74Z"/>
    <path class="cls-1" d="M169.91,103.54c-.15,.31-.3,.61-.45,.92,.15-.3,.3-.61,.45-.92Z"/>
    <path class="cls-1" d="M169.11,105.2c-.14,.31-.29,.61-.43,.92,.14-.3,.29-.61,.43-.92Z"/>
    <path class="cls-1" d="M182.75,85.04c.28-.27,.56-.52,.84-.78-.28,.26-.57,.52-.84,.78Z"/>
    <path class="cls-1" d="M168.35,106.87c-.13,.3-.27,.59-.4,.89,.13-.29,.26-.59,.4-.89Z"/>
    <path class="cls-1" d="M233.4,106.04c-.12,.16-.25,.32-.37,.47,.12-.15,.25-.32,.37-.47Z"/>
    <path class="cls-1" d="M171.68,100.14c-.17,.31-.34,.62-.51,.93,.16-.31,.34-.62,.51-.93Z"/>
    <path class="cls-1" d="M170.77,101.84c-.16,.31-.32,.62-.48,.92,.15-.31,.32-.62,.48-.92Z"/>
    <path class="cls-1" d="M231.42,108.43c-.15,.17-.31,.34-.46,.51,.15-.17,.31-.34,.46-.51Z"/>
    <path class="cls-1" d="M194.09,77.49l.17-.07s-.03,.01-.05,.02l-.12,.05Z"/>
    <path class="cls-1" d="M166.97,110.07c-.12,.29-.24,.58-.35,.86,.11-.28,.23-.57,.35-.86Z"/>
    <path class="cls-1" d="M235.17,103.7c-.17,.24-.35,.48-.53,.72,.18-.24,.35-.48,.53-.72Z"/>
    <path class="cls-1" d="M166.35,111.62c-.11,.28-.22,.56-.32,.83,.1-.27,.22-.55,.32-.83Z"/>
    <path class="cls-1" d="M167.63,108.5c-.12,.29-.25,.58-.37,.87,.12-.29,.25-.58,.37-.87Z"/>
    <path class="cls-1" d="M222.26,119.38c.22-.13,.44-.25,.65-.39-.22,.14-.44,.26-.65,.39Z"/>
    <path class="cls-1" d="M169.27,110.71c.18-.44,.37-.89,.57-1.34-.2,.45-.39,.9-.57,1.34Z"/>
    <path class="cls-1" d="M168.72,112.07c.14-.36,.29-.72,.44-1.08-.15,.37-.3,.73-.44,1.08Z"/>
    <path class="cls-1" d="M241.57,98.15c.13-.22,.26-.42,.38-.65-.13,.22-.26,.43-.38,.65Z"/>
    <path class="cls-1" d="M170.72,107.4c.15-.33,.31-.67,.47-1.01-.16,.34-.31,.67-.47,1.01Z"/>
    <path class="cls-1" d="M168.19,113.42c.11-.3,.23-.6,.35-.9-.12,.3-.24,.6-.35,.9Z"/>
    <path class="cls-1" d="M167.6,114.96c.14-.37,.28-.75,.43-1.13-.15,.39-.29,.76-.43,1.13Z"/>
    <path class="cls-1" d="M239.82,101.06c.14-.23,.29-.45,.44-.68-.14,.23-.29,.45-.44,.68Z"/>
    <path class="cls-1" d="M171.4,105.94c.22-.46,.45-.93,.68-1.4-.23,.47-.46,.94-.68,1.4Z"/>
    <path class="cls-1" d="M165.23,122.07h0c.05-.18,.11-.38,.17-.59-.06,.21-.12,.41-.17,.59Z"/>
    <path class="cls-1" d="M165.45,121.35c.06-.19,.12-.39,.18-.6-.06,.21-.13,.41-.18,.6Z"/>
    <path class="cls-1" d="M232.41,110.88c.2-.22,.4-.42,.6-.65-.2,.22-.4,.43-.6,.65Z"/>
    <path class="cls-1" d="M238.02,103.77c.16-.23,.32-.45,.48-.69-.16,.24-.32,.46-.48,.69Z"/>
    <path class="cls-1" d="M234.33,108.68c.19-.22,.38-.44,.56-.67-.19,.23-.37,.44-.56,.67Z"/>
    <path class="cls-1" d="M236.19,106.32c.17-.23,.35-.45,.53-.69-.17,.24-.35,.45-.53,.69Z"/>
    <path class="cls-1" d="M165.71,120.52c.06-.21,.13-.42,.2-.64-.07,.22-.14,.44-.2,.64Z"/>
    <path class="cls-1" d="M166.74,117.37c.09-.26,.19-.53,.28-.81-.1,.28-.19,.54-.28,.81Z"/>
    <path class="cls-1" d="M224.37,118c.22-.15,.45-.29,.66-.45-.22,.16-.44,.3-.66,.45Z"/>
    <path class="cls-1" d="M226.44,116.47c.22-.17,.44-.33,.66-.51-.22,.18-.44,.34-.66,.51Z"/>
    <path class="cls-1" d="M228.47,114.77c.22-.19,.44-.37,.65-.57-.22,.2-.44,.38-.65,.57Z"/>
    <path class="cls-1" d="M167.14,116.22c.13-.38,.27-.76,.42-1.16-.15,.4-.29,.79-.42,1.16Z"/>
    <path class="cls-1" d="M165.98,119.65c.1-.3,.2-.61,.31-.94-.11,.33-.21,.64-.31,.94Z"/>
    <path class="cls-1" d="M166.33,118.57c.09-.28,.19-.58,.3-.88-.1,.3-.2,.6-.3,.88Z"/>
    <path class="cls-1" d="M170.05,108.9c.14-.32,.28-.63,.42-.96-.14,.32-.29,.64-.42,.96Z"/>
    <path class="cls-1" d="M244.96,91.81c.09-.18,.18-.35,.27-.54-.09,.18-.18,.36-.27,.54Z"/>
    <path class="cls-1" d="M178.17,94.17c.24-.34,.48-.68,.73-1.02-.25,.34-.49,.68-.73,1.02Z"/>
    <path class="cls-1" d="M231.09,112.3c-.2,.21-.41,.4-.62,.6,.21-.2,.41-.39,.62-.6Z"/>
    <path class="cls-1" d="M180.41,91.17c.27-.34,.54-.67,.82-1-.28,.33-.55,.66-.82,1Z"/>
    <path class="cls-1" d="M179.32,92.58c.21-.29,.43-.57,.65-.85-.22,.28-.44,.56-.65,.85Z"/>
    <path class="cls-1" d="M243.29,95.07c.11-.2,.22-.39,.32-.59-.11,.2-.22,.39-.32,.59Z"/>
    <path class="cls-1" d="M183.5,87.64c-.14,.15-.28,.3-.43,.46,.14-.14,.27-.29,.41-.43,0,0,.01-.02,.02-.03Z"/>
    <path class="cls-1" d="M181.61,89.72c.33-.38,.67-.76,1.01-1.14-.34,.37-.68,.75-1.01,1.14Z"/>
    <path class="cls-1" d="M176.96,95.95c.28-.42,.56-.84,.84-1.26-.29,.42-.57,.84-.84,1.26Z"/>
    <path class="cls-1" d="M173.96,100.95c.26-.47,.53-.94,.8-1.41-.27,.47-.54,.94-.8,1.41Z"/>
    <path class="cls-1" d="M173.15,102.45c.17-.32,.34-.63,.51-.95-.17,.32-.34,.63-.51,.95Z"/>
    <path class="cls-1" d="M175.05,99.04c.19-.33,.39-.66,.59-.99-.2,.33-.4,.66-.59,.99Z"/>
    <path class="cls-1" d="M172.34,104.03c.16-.32,.33-.65,.5-.97-.17,.33-.33,.65-.5,.97Z"/>
    <path class="cls-1" d="M248.29,84.5s.04-.09,.06-.13c-.02,.04-.04,.09-.06,.13Z"/>
    <path class="cls-1" d="M176.02,97.44c.19-.3,.38-.6,.57-.9-.19,.3-.38,.6-.57,.9Z"/>
    <path class="cls-1" d="M246.63,88.28c.06-.13,.12-.25,.18-.38-.06,.13-.12,.25-.18,.38Z"/>
    <polygon class="cls-1" points="355.06 95.8 355.05 95.79 355.05 95.8 355.06 95.8"/>
    <path class="cls-1" d="M346.6,116.46c.25-.71,.51-1.42,.78-2.14-.27,.71-.53,1.42-.78,2.14Z"/>
    <path class="cls-1" d="M345.54,119.63c.24-.77,.5-1.55,.77-2.33-.27,.79-.53,1.57-.77,2.33Z"/>
    <path class="cls-1" d="M365.96,84.11c-.31,.26-.61,.52-.9,.79,.29-.27,.59-.53,.9-.79Z"/>
    <path class="cls-1" d="M366.33,83.81c.16-.13,.33-.26,.5-.39,0,0,0-.01,.01-.02-.18,.13-.34,.27-.51,.41Z"/>
    <path class="cls-1" d="M182.15,85.65c.2-.2,.4-.41,.6-.61-.2,.2-.4,.41-.6,.61Z"/>
    <path class="cls-1" d="M194.26,77.42s.04-.02,.06-.02c0,0-.02,0-.02,0l-.04,.02Z"/>
    <path class="cls-1" d="M171.17,101.07c-.14,.26-.27,.52-.4,.77,.13-.26,.26-.52,.4-.77Z"/>
    <path class="cls-1" d="M163.39,120.1c-.04,.13-.08,.25-.11,.38,.04-.13,.07-.25,.11-.38Z"/>
    <path class="cls-1" d="M163.72,119.04c-.05,.14-.08,.27-.13,.41,.04-.14,.08-.27,.13-.41Z"/>
    <path class="cls-1" d="M164.1,117.87c-.06,.17-.11,.33-.16,.5,.05-.17,.1-.32,.16-.5Z"/>
    <path class="cls-1" d="M247.6,80.01c-.43,1.09-.86,2.15-1.3,3.2,.44-1.05,.87-2.11,1.3-3.2Z"/>
    <path class="cls-1" d="M163.1,121.07c-.03,.1-.06,.2-.09,.29,.03-.1,.05-.19,.09-.29Z"/>
    <path class="cls-1" d="M164.51,116.62c-.07,.2-.13,.38-.19,.57,.06-.19,.12-.37,.19-.57Z"/>
    <polygon class="cls-1" points="162.65 122.64 162.69 122.48 162.65 122.64 162.65 122.64"/>
    <path class="cls-1" d="M166.62,110.93c-.09,.23-.18,.46-.27,.69,.09-.23,.18-.46,.27-.69Z"/>
    <path class="cls-1" d="M167.26,109.37c-.1,.24-.19,.47-.29,.71,.1-.24,.19-.47,.29-.71Z"/>
    <path class="cls-1" d="M167.95,107.76c-.11,.25-.21,.49-.32,.74,.11-.25,.21-.49,.32-.74Z"/>
    <path class="cls-1" d="M165.48,113.91c-.07,.2-.14,.4-.22,.6,.07-.2,.14-.39,.22-.6Z"/>
    <path class="cls-1" d="M166.03,112.45c-.08,.22-.16,.43-.24,.65,.08-.22,.16-.43,.24-.65Z"/>
    <path class="cls-1" d="M164.97,115.3c-.07,.2-.13,.39-.2,.58,.07-.19,.13-.38,.2-.58Z"/>
    <path class="cls-1" d="M230.96,108.94c-.41,.45-.82,.9-1.23,1.33,.41-.43,.82-.88,1.23-1.33Z"/>
    <path class="cls-1" d="M234.64,104.42c-.41,.55-.82,1.09-1.24,1.62,.42-.53,.83-1.07,1.24-1.62Z"/>
    <path class="cls-1" d="M233.03,106.51c-.53,.66-1.07,1.3-1.61,1.92,.54-.62,1.08-1.26,1.61-1.92Z"/>
    <path class="cls-1" d="M227.32,112.65s.08-.08,.13-.12c-.04,.04-.08,.07-.12,.1,0,0,0,.01,0,.02Z"/>
    <path class="cls-1" d="M229.17,110.86c-.42,.43-.85,.84-1.28,1.25,.43-.41,.86-.82,1.28-1.25Z"/>
    <path class="cls-1" d="M245.9,84.14c-.32,.75-.65,1.5-.98,2.23,.33-.73,.65-1.48,.98-2.23Z"/>
    <path class="cls-1" d="M244.5,87.31c-.41,.89-.82,1.76-1.23,2.61,.41-.85,.82-1.73,1.23-2.61Z"/>
    <path class="cls-1" d="M241.29,93.81c-.35,.65-.7,1.29-1.05,1.91,.35-.63,.7-1.26,1.05-1.91Z"/>
    <path class="cls-1" d="M236.3,102.08c-.38,.55-.75,1.09-1.14,1.62,.38-.53,.76-1.07,1.14-1.62Z"/>
    <path class="cls-1" d="M238.26,99.08c-.5,.8-1,1.58-1.51,2.34,.51-.76,1.01-1.54,1.51-2.34Z"/>
    <path class="cls-1" d="M239.76,96.57c-.4,.7-.81,1.39-1.22,2.06,.41-.67,.82-1.36,1.22-2.06Z"/>
    <path class="cls-1" d="M243.12,90.24c-.46,.94-.93,1.86-1.41,2.77,.47-.9,.94-1.82,1.41-2.77Z"/>
    <path class="cls-1" d="M184.2,83.7c-.21,.18-.4,.37-.61,.56,.2-.19,.4-.38,.61-.56Z"/>
    <path class="cls-1" d="M178.73,89.46c-.19,.23-.36,.46-.55,.7,.18-.23,.36-.47,.55-.7Z"/>
    <path class="cls-1" d="M185.71,82.43c-.21,.17-.42,.35-.63,.53,.21-.18,.42-.36,.63-.53Z"/>
    <path class="cls-1" d="M180.01,87.93c-.19,.22-.37,.45-.56,.67,.19-.22,.37-.45,.56-.67Z"/>
    <path class="cls-1" d="M181.36,86.45c-.2,.21-.39,.42-.58,.64,.19-.21,.38-.43,.58-.64Z"/>
    <path class="cls-1" d="M187.27,81.24c-.22,.16-.43,.33-.65,.49,.22-.16,.43-.33,.65-.49Z"/>
    <path class="cls-1" d="M192.3,78.27c-.17,.08-.33,.17-.49,.25,.16-.08,.32-.17,.49-.25Z"/>
    <path class="cls-1" d="M190.56,79.15c-.21,.12-.41,.25-.61,.36,.21-.12,.41-.25,.61-.36Z"/>
    <path class="cls-1" d="M188.89,80.15c-.21,.13-.42,.28-.62,.42,.21-.14,.41-.29,.62-.42Z"/>
    <path class="cls-1" d="M176.31,92.65c-.17,.24-.33,.49-.5,.73,.17-.24,.33-.49,.5-.73Z"/>
    <path class="cls-1" d="M170.29,102.77c-.13,.26-.25,.51-.38,.77,.13-.26,.25-.51,.38-.77Z"/>
    <path class="cls-1" d="M172.1,99.36c-.14,.26-.28,.52-.42,.78,.14-.26,.28-.52,.42-.78Z"/>
    <path class="cls-1" d="M169.46,104.45c-.12,.25-.23,.5-.35,.75,.12-.25,.23-.5,.35-.75Z"/>
    <path class="cls-1" d="M173.08,97.66c-.15,.26-.3,.52-.45,.78,.15-.26,.3-.52,.45-.78Z"/>
    <path class="cls-1" d="M175.18,94.3c-.17,.25-.33,.5-.49,.76,.16-.25,.32-.51,.49-.76Z"/>
    <path class="cls-1" d="M168.68,106.12c-.12,.25-.22,.5-.34,.75,.11-.25,.22-.5,.34-.75Z"/>
    <path class="cls-1" d="M174.1,95.97c-.16,.26-.31,.52-.47,.78,.16-.26,.31-.52,.47-.78Z"/>
    <path class="cls-1" d="M177.49,91.04c-.18,.23-.35,.47-.52,.71,.17-.24,.34-.48,.52-.71Z"/>
    <path class="cls-1" d="M342.42,121.89l.05-.1c.02-.09,.13-.49,.3-1.07h0c-.17,.56-.27,.95-.31,1.09l-.04,.08Z"/>
    <path class="cls-1" d="M172.08,104.54c.08-.17,.17-.34,.26-.51-.09,.17-.17,.34-.26,.51Z"/>
    <path class="cls-1" d="M229.12,114.21c.46-.42,.9-.86,1.35-1.31-.45,.44-.9,.89-1.35,1.31Z"/>
    <path class="cls-1" d="M181.23,90.17c.13-.15,.25-.3,.38-.45-.13,.15-.25,.3-.38,.45Z"/>
    <path class="cls-1" d="M222.92,118.99c.49-.31,.97-.65,1.45-.99-.48,.34-.96,.67-1.45,.99Z"/>
    <path class="cls-1" d="M227.1,115.96c.46-.38,.91-.78,1.36-1.18-.45,.4-.9,.8-1.36,1.18Z"/>
    <path class="cls-1" d="M225.04,117.55c.47-.34,.94-.71,1.4-1.08-.47,.37-.93,.74-1.4,1.08Z"/>
    <path class="cls-1" d="M179.97,91.73c.15-.19,.29-.38,.44-.56-.15,.19-.29,.37-.44,.56Z"/>
    <path class="cls-1" d="M182.62,88.58c.15-.16,.3-.32,.45-.48-.15,.16-.3,.32-.45,.48Z"/>
    <path class="cls-1" d="M178.9,93.16c.14-.19,.28-.38,.43-.58-.14,.19-.29,.38-.43,.58Z"/>
    <path class="cls-1" d="M174.76,99.53c.09-.16,.19-.32,.29-.49-.1,.16-.19,.33-.29,.49Z"/>
    <path class="cls-1" d="M175.64,98.05c.12-.2,.25-.41,.38-.61-.13,.2-.25,.41-.38,.61Z"/>
    <path class="cls-1" d="M173.66,101.5c.1-.18,.2-.37,.3-.55-.1,.19-.2,.37-.3,.55Z"/>
    <path class="cls-1" d="M177.81,94.69c.12-.17,.24-.35,.36-.52-.12,.17-.24,.34-.36,.52Z"/>
    <path class="cls-1" d="M176.58,96.54c.13-.2,.25-.39,.38-.59-.13,.2-.25,.39-.38,.59Z"/>
    <polygon class="cls-1" points="249.91 122.84 249.91 122.84 249.93 125.9 249.93 125.89 249.91 122.84"/>
    <path class="cls-1" d="M233.01,110.24c.44-.5,.88-1.03,1.32-1.56-.44,.53-.87,1.06-1.32,1.56Z"/>
    <path class="cls-1" d="M243.61,94.47c.45-.87,.9-1.76,1.35-2.66-.45,.9-.89,1.8-1.35,2.66Z"/>
    <path class="cls-1" d="M248.35,84.36c.51-1.21,1.01-2.44,1.5-3.71-.49,1.26-.99,2.5-1.5,3.71Z"/>
    <path class="cls-1" d="M364.49,82.3c4.82-4.02,11.89-6.69,18.79-7.11-6.9,.42-13.98,3.09-18.79,7.11Z"/>
    <path class="cls-1" d="M245.23,91.27c.47-.97,.94-1.97,1.4-2.99-.46,1.01-.93,2.01-1.4,2.99Z"/>
    <path class="cls-1" d="M236.72,105.63c.44-.6,.87-1.23,1.3-1.86-.43,.63-.86,1.26-1.3,1.86Z"/>
    <path class="cls-1" d="M234.89,108.01c.44-.55,.87-1.12,1.31-1.7-.43,.57-.87,1.15-1.31,1.7Z"/>
    <path class="cls-1" d="M238.51,103.08c.44-.66,.87-1.34,1.31-2.03-.43,.69-.87,1.37-1.31,2.03Z"/>
    <path class="cls-1" d="M241.95,97.51c.45-.79,.89-1.61,1.33-2.44-.44,.83-.88,1.65-1.33,2.44Z"/>
    <path class="cls-1" d="M240.25,100.38c.45-.72,.88-1.47,1.32-2.23-.44,.75-.87,1.5-1.32,2.23Z"/>
    <path class="cls-1" d="M246.81,87.9c.5-1.11,.99-2.25,1.48-3.41-.49,1.16-.98,2.3-1.48,3.41Z"/>
    <path class="cls-1" d="M165.91,119.87c.02-.08,.05-.15,.07-.23-.03,.08-.05,.15-.07,.23Z"/>
    <path class="cls-1" d="M166.63,117.69c.04-.1,.07-.21,.11-.32-.04,.11-.07,.21-.11,.32Z"/>
    <path class="cls-1" d="M166.29,118.7s.03-.09,.05-.14c-.02,.05-.03,.09-.05,.14Z"/>
    <path class="cls-1" d="M167.56,115.06s.03-.07,.04-.1c-.01,.03-.03,.07-.04,.1Z"/>
    <path class="cls-1" d="M168.03,113.83c.05-.13,.1-.27,.16-.41-.05,.14-.11,.27-.16,.41Z"/>
    <path class="cls-1" d="M165.63,120.75c.02-.08,.05-.16,.07-.23-.02,.08-.05,.16-.07,.23Z"/>
    <path class="cls-1" d="M168.54,112.52c.06-.15,.12-.3,.18-.45-.06,.15-.12,.3-.18,.45Z"/>
    <path class="cls-1" d="M232.41,110.88c-.44,.48-.88,.96-1.32,1.42,.45-.46,.88-.94,1.32-1.42Z"/>
    <path class="cls-1" d="M165.41,121.49s.03-.09,.04-.13c-.01,.04-.03,.09-.04,.13Z"/>
    <path class="cls-1" d="M167.02,116.56c.04-.11,.08-.22,.12-.34-.04,.11-.08,.22-.12,.34Z"/>
    <path class="cls-1" d="M169.84,109.37c.07-.15,.14-.31,.2-.47-.07,.16-.14,.31-.2,.47Z"/>
    <path class="cls-1" d="M170.47,107.95c.08-.18,.16-.36,.25-.54-.08,.18-.16,.36-.25,.54Z"/>
    <path class="cls-1" d="M171.19,106.4c.07-.15,.14-.3,.21-.46-.07,.15-.14,.3-.21,.46Z"/>
    <path class="cls-1" d="M169.16,110.99c.04-.09,.07-.18,.11-.27-.04,.09-.07,.18-.11,.27Z"/>
    <path class="cls-1" d="M172.84,103.05c.1-.2,.21-.4,.31-.6-.11,.2-.21,.4-.31,.6Z"/>
  </g>
</svg>
